<?xml version="1.0" encoding="UTF-8" standalone="no"?>
<!-- Generator: Adobe Illustrator 23.0.1, SVG Export Plug-In . SVG Version: 6.00 Build 0)  -->

<svg
   version="1.1"
   id="Layer_1"
   x="0px"
   y="0px"
   viewBox="0 0 1512.0291 1512.0291"
   xml:space="preserve"
   sodipodi:docname="ico.svg"
   inkscape:version="1.3.2 (091e20e, 2023-11-25, custom)"
   width="1512.0291"
   height="1512.0291"
   inkscape:export-filename="ico2.svg"
   inkscape:export-xdpi="9"
   inkscape:export-ydpi="9"
   xmlns:inkscape="http://www.inkscape.org/namespaces/inkscape"
   xmlns:sodipodi="http://sodipodi.sourceforge.net/DTD/sodipodi-0.dtd"
   xmlns:xlink="http://www.w3.org/1999/xlink"
   xmlns="http://www.w3.org/2000/svg"
   xmlns:svg="http://www.w3.org/2000/svg"><defs
   id="defs1476" /><sodipodi:namedview
   id="namedview1474"
   pagecolor="#505050"
   bordercolor="#eeeeee"
   borderopacity="1"
   inkscape:showpageshadow="0"
   inkscape:pageopacity="0"
   inkscape:pagecheckerboard="0"
   inkscape:deskcolor="#505050"
   showgrid="false"
   inkscape:zoom="0.40869141"
   inkscape:cx="701.01791"
   inkscape:cy="757.29509"
   inkscape:window-width="1920"
   inkscape:window-height="1009"
   inkscape:window-x="-8"
   inkscape:window-y="-8"
   inkscape:window-maximized="1"
   inkscape:current-layer="g1471" />
<style
   type="text/css"
   id="style1128">
	.st0{opacity:0.7;enable-background:new    ;}
	.st1{display:none;clip-path:url(#SVGID_78_);}
	.st2{display:inline;fill:#2D3335;}
	.st3{opacity:0.7;fill:#2D3335;enable-background:new    ;}
	.st4{display:none;clip-path:url(#SVGID_79_);}
	.st5{display:inline;fill:#21468B;}
	.st6{display:inline;fill:#FFFFFF;}
	.st7{display:inline;fill:#AE1C28;}
	.st8{clip-path:url(#SVGID_81_);}
	.st9{fill:#CEEEAB;}
	.st10{clip-path:url(#SVGID_82_);}
	.st11{fill:#A6DD8B;}
	.st12{fill:#AAC3E7;}
	
		.st13{opacity:0.387;fill:none;stroke:#6D7F42;stroke-width:7.6448;stroke-linecap:round;stroke-linejoin:round;enable-background:new    ;}
	.st14{clip-path:url(#SVGID_83_);}
	.st15{opacity:0.387;fill:none;stroke:#6D7F42;stroke-width:7.6448;enable-background:new    ;}
	.st16{clip-path:url(#SVGID_84_);}
	.st17{fill:none;stroke:#D38484;stroke-width:15.2896;stroke-linecap:round;}
	.st18{opacity:0.2696;}
	.st19{fill:url(#path3834-4-9_10_);}
	.st20{fill:url(#path3834-7-2-4-9_10_);}
	.st21{fill:url(#path3834-7-26-9-7_10_);}
	.st22{fill:url(#path3834-4-9-6_10_);}
	.st23{fill:url(#path3834-7-26-0-0-9_10_);}
	.st24{fill:url(#path3834-7-2-4-3_10_);}
	.st25{fill:url(#path3834-7-26-9-85_10_);}
	.st26{fill:url(#path3834-7-26-0-0-3_10_);}
	.st27{opacity:4.347827e-02;}
	.st28{fill:url(#path3834-4-9-1_10_);}
	.st29{fill:url(#path3834-7-26-0-0-7_10_);}
	.st30{fill:url(#path3834-7-2-4-6_10_);}
	.st31{fill:url(#path3834-7-26-9-8_10_);}
	.st32{fill:url(#path3834-4-9-2_10_);}
	.st33{fill:url(#path3834-7-26-0-0-0_10_);}
	.st34{fill:url(#path3834-7-26-9-9_10_);}
	.st35{fill:url(#path3834-7-2-4-5_10_);}
	.st36{opacity:0.75;clip-path:url(#SVGID_81_);fill:#2D3335;}
	.st37{display:none;clip-path:url(#SVGID_85_);}
	.st38{display:inline;fill:#21468B;stroke:#2C2C2C;stroke-width:6;stroke-linecap:round;stroke-miterlimit:10;}
	.st39{display:inline;fill:#FFFFFF;stroke:#2C2C2C;stroke-width:6;stroke-linecap:round;stroke-miterlimit:10;}
	.st40{display:inline;fill:#AE1C28;stroke:#2C2C2C;stroke-width:6;stroke-linecap:round;stroke-miterlimit:10;}
	.st41{fill:#2A72FF;}
	.st42{fill:#FFFFFF;}
	.st43{fill:#D0E9F2;fill-opacity:0.476;}
	.st44{clip-path:url(#SVGID_87_);}
	.st45{fill:#21468B;}
	.st46{fill:#AE1C28;}
	.st47{fill:url(#SVGID_88_);}
	.st48{fill:#2D3335;}
	.st49{fill:#9EAAAC;}
	.st50{fill:url(#SVGID_89_);}
	.st51{fill:url(#SVGID_90_);}
	.st52{fill:url(#SVGID_91_);}
	.st53{fill:url(#SVGID_92_);}
	.st54{opacity:0.596;fill:url(#SVGID_93_);enable-background:new    ;}
	.st55{opacity:0.604;fill:url(#SVGID_94_);enable-background:new    ;}
	.st56{opacity:0.765;fill:url(#SVGID_95_);enable-background:new    ;}
	.st57{display:none;clip-path:url(#SVGID_96_);}
	.st58{display:none;clip-path:url(#SVGID_97_);}
	.st59{clip-path:url(#SVGID_99_);}
	.st60{clip-path:url(#SVGID_100_);}
	.st61{clip-path:url(#SVGID_101_);}
	.st62{clip-path:url(#SVGID_102_);}
	.st63{fill:none;stroke:#D38484;stroke-width:15.2897;stroke-linecap:round;}
	.st64{fill:url(#path3834-4-9_11_);}
	.st65{fill:url(#path3834-7-2-4-9_11_);}
	.st66{fill:url(#path3834-7-26-9-7_11_);}
	.st67{fill:url(#path3834-4-9-6_11_);}
	.st68{fill:url(#path3834-7-26-0-0-9_11_);}
	.st69{fill:url(#path3834-7-2-4-3_11_);}
	.st70{fill:url(#path3834-7-26-9-85_11_);}
	.st71{fill:url(#path3834-7-26-0-0-3_11_);}
	.st72{fill:url(#path3834-4-9-1_11_);}
	.st73{fill:url(#path3834-7-26-0-0-7_11_);}
	.st74{fill:url(#path3834-7-2-4-6_11_);}
	.st75{fill:url(#path3834-7-26-9-8_11_);}
	.st76{fill:url(#path3834-4-9-2_11_);}
	.st77{fill:url(#path3834-7-26-0-0-0_11_);}
	.st78{fill:url(#path3834-7-26-9-9_11_);}
	.st79{fill:url(#path3834-7-2-4-5_11_);}
	.st80{opacity:0.75;clip-path:url(#SVGID_99_);fill:#2D3335;}
	.st81{display:none;clip-path:url(#SVGID_103_);}
	.st82{clip-path:url(#SVGID_105_);}
	.st83{fill:url(#SVGID_106_);}
	.st84{fill:url(#SVGID_107_);}
	.st85{fill:url(#SVGID_108_);}
	.st86{fill:url(#SVGID_109_);}
	.st87{fill:url(#SVGID_110_);}
	.st88{opacity:0.596;fill:url(#SVGID_111_);enable-background:new    ;}
	.st89{opacity:0.604;fill:url(#SVGID_112_);enable-background:new    ;}
	.st90{opacity:0.765;fill:url(#SVGID_113_);enable-background:new    ;}
	.st91{display:none;clip-path:url(#SVGID_114_);}
	.st92{display:none;clip-path:url(#SVGID_115_);}
	.st93{clip-path:url(#SVGID_117_);}
	.st94{clip-path:url(#SVGID_118_);}
	.st95{clip-path:url(#SVGID_119_);}
	.st96{clip-path:url(#SVGID_120_);}
	.st97{fill:url(#path3834-4-9_12_);}
	.st98{fill:url(#path3834-7-2-4-9_12_);}
	.st99{fill:url(#path3834-7-26-9-7_12_);}
	.st100{fill:url(#path3834-4-9-6_12_);}
	.st101{fill:url(#path3834-7-26-0-0-9_12_);}
	.st102{fill:url(#path3834-7-2-4-3_12_);}
	.st103{fill:url(#path3834-7-26-9-85_12_);}
	.st104{fill:url(#path3834-7-26-0-0-3_12_);}
	.st105{fill:url(#path3834-4-9-1_12_);}
	.st106{fill:url(#path3834-7-26-0-0-7_12_);}
	.st107{fill:url(#path3834-7-2-4-6_12_);}
	.st108{fill:url(#path3834-7-26-9-8_12_);}
	.st109{fill:url(#path3834-4-9-2_12_);}
	.st110{fill:url(#path3834-7-26-0-0-0_12_);}
	.st111{fill:url(#path3834-7-26-9-9_12_);}
	.st112{fill:url(#path3834-7-2-4-5_12_);}
	.st113{opacity:0.75;clip-path:url(#SVGID_117_);fill:#2D3335;}
	.st114{display:none;clip-path:url(#SVGID_121_);}
	.st115{clip-path:url(#SVGID_123_);}
	.st116{fill:url(#SVGID_124_);}
	.st117{fill:url(#SVGID_125_);}
	.st118{fill:url(#SVGID_126_);}
	.st119{fill:url(#SVGID_127_);}
	.st120{fill:url(#SVGID_128_);}
	.st121{opacity:0.596;fill:url(#SVGID_129_);enable-background:new    ;}
	.st122{opacity:0.604;fill:url(#SVGID_130_);enable-background:new    ;}
	.st123{opacity:0.765;fill:url(#SVGID_131_);enable-background:new    ;}
	.st124{display:none;clip-path:url(#SVGID_132_);}
	.st125{display:none;clip-path:url(#SVGID_133_);}
	.st126{clip-path:url(#SVGID_135_);}
	.st127{clip-path:url(#SVGID_136_);}
	
		.st128{opacity:0.387;fill:none;stroke:#6D7F42;stroke-width:7.4287;stroke-linecap:round;stroke-linejoin:round;enable-background:new    ;}
	.st129{clip-path:url(#SVGID_137_);}
	.st130{opacity:0.387;fill:none;stroke:#6D7F42;stroke-width:7.4287;enable-background:new    ;}
	.st131{clip-path:url(#SVGID_138_);}
	.st132{fill:none;stroke:#D38484;stroke-width:14.8575;stroke-linecap:round;}
	.st133{fill:url(#path3834-4-9_13_);}
	.st134{fill:url(#path3834-7-2-4-9_13_);}
	.st135{fill:url(#path3834-7-26-9-7_13_);}
	.st136{fill:url(#path3834-4-9-6_13_);}
	.st137{fill:url(#path3834-7-26-0-0-9_13_);}
	.st138{fill:url(#path3834-7-2-4-3_13_);}
	.st139{fill:url(#path3834-7-26-9-85_13_);}
	.st140{fill:url(#path3834-7-26-0-0-3_13_);}
	.st141{fill:url(#path3834-4-9-1_13_);}
	.st142{fill:url(#path3834-7-26-0-0-7_13_);}
	.st143{fill:url(#path3834-7-2-4-6_13_);}
	.st144{fill:url(#path3834-7-26-9-8_13_);}
	.st145{fill:url(#path3834-4-9-2_13_);}
	.st146{fill:url(#path3834-7-26-0-0-0_13_);}
	.st147{fill:url(#path3834-7-26-9-9_13_);}
	.st148{fill:url(#path3834-7-2-4-5_13_);}
	.st149{opacity:0.75;clip-path:url(#SVGID_135_);fill:#2D3335;}
	.st150{display:none;clip-path:url(#SVGID_139_);}
	.st151{display:inline;fill:#21468B;stroke:#2C2C2C;stroke-width:5.8304;stroke-linecap:round;stroke-miterlimit:10;}
	.st152{display:inline;fill:#FFFFFF;stroke:#2C2C2C;stroke-width:5.8304;stroke-linecap:round;stroke-miterlimit:10;}
	.st153{display:inline;fill:#AE1C28;stroke:#2C2C2C;stroke-width:5.8304;stroke-linecap:round;stroke-miterlimit:10;}
	.st154{clip-path:url(#SVGID_140_);}
	.st155{fill:url(#SVGID_141_);}
	.st156{fill:url(#SVGID_142_);}
	.st157{fill:url(#SVGID_143_);}
	.st158{fill:url(#SVGID_144_);}
	.st159{fill:url(#SVGID_145_);}
	.st160{opacity:0.596;fill:url(#SVGID_146_);enable-background:new    ;}
	.st161{opacity:0.604;fill:url(#SVGID_147_);enable-background:new    ;}
	.st162{opacity:0.765;fill:url(#SVGID_148_);enable-background:new    ;}
	.st163{display:none;clip-path:url(#SVGID_149_);}
	.st164{display:none;clip-path:url(#SVGID_150_);}
	.st165{clip-path:url(#SVGID_152_);}
	.st166{clip-path:url(#SVGID_153_);}
	
		.st167{opacity:0.387;fill:none;stroke:#6D7F42;stroke-width:7.8097;stroke-linecap:round;stroke-linejoin:round;enable-background:new    ;}
	.st168{clip-path:url(#SVGID_154_);}
	.st169{opacity:0.387;fill:none;stroke:#6D7F42;stroke-width:7.8097;enable-background:new    ;}
	.st170{clip-path:url(#SVGID_155_);}
	.st171{fill:none;stroke:#D38484;stroke-width:15.6194;stroke-linecap:round;}
	.st172{fill:url(#path3834-4-9_14_);}
	.st173{fill:url(#path3834-7-2-4-9_14_);}
	.st174{fill:url(#path3834-7-26-9-7_14_);}
	.st175{fill:url(#path3834-4-9-6_14_);}
	.st176{fill:url(#path3834-7-26-0-0-9_14_);}
	.st177{fill:url(#path3834-7-2-4-3_14_);}
	.st178{fill:url(#path3834-7-26-9-85_14_);}
	.st179{fill:url(#path3834-7-26-0-0-3_14_);}
	.st180{fill:url(#path3834-4-9-1_14_);}
	.st181{fill:url(#path3834-7-26-0-0-7_14_);}
	.st182{fill:url(#path3834-7-2-4-6_14_);}
	.st183{fill:url(#path3834-7-26-9-8_14_);}
	.st184{fill:url(#path3834-4-9-2_14_);}
	.st185{fill:url(#path3834-7-26-0-0-0_14_);}
	.st186{fill:url(#path3834-7-26-9-9_14_);}
	.st187{fill:url(#path3834-7-2-4-5_14_);}
	.st188{opacity:0.75;clip-path:url(#SVGID_152_);fill:#2D3335;}
	.st189{display:none;clip-path:url(#SVGID_156_);}
	.st190{display:inline;fill:#21468B;stroke:#2C2C2C;stroke-width:6.1294;stroke-linecap:round;stroke-miterlimit:10;}
	.st191{display:inline;fill:#FFFFFF;stroke:#2C2C2C;stroke-width:6.1294;stroke-linecap:round;stroke-miterlimit:10;}
	.st192{display:inline;fill:#AE1C28;stroke:#2C2C2C;stroke-width:6.1294;stroke-linecap:round;stroke-miterlimit:10;}
	.st193{clip-path:url(#SVGID_157_);}
	.st194{fill:url(#SVGID_158_);}
	.st195{fill:url(#SVGID_159_);}
	.st196{fill:url(#SVGID_160_);}
	.st197{fill:url(#SVGID_161_);}
	.st198{fill:url(#SVGID_162_);}
	.st199{opacity:0.596;fill:url(#SVGID_163_);enable-background:new    ;}
	.st200{opacity:0.604;fill:url(#SVGID_164_);enable-background:new    ;}
	.st201{opacity:0.765;fill:url(#SVGID_165_);enable-background:new    ;}
	.st202{display:none;clip-path:url(#SVGID_166_);}
	.st203{display:none;clip-path:url(#SVGID_167_);}
	.st204{clip-path:url(#SVGID_169_);}
	.st205{clip-path:url(#SVGID_170_);}
	.st206{clip-path:url(#SVGID_171_);}
	.st207{clip-path:url(#SVGID_172_);}
	.st208{fill:url(#path3834-4-9_15_);}
	.st209{fill:url(#path3834-7-2-4-9_15_);}
	.st210{fill:url(#path3834-7-26-9-7_15_);}
	.st211{fill:url(#path3834-4-9-6_15_);}
	.st212{fill:url(#path3834-7-26-0-0-9_15_);}
	.st213{fill:url(#path3834-7-2-4-3_15_);}
	.st214{fill:url(#path3834-7-26-9-85_15_);}
	.st215{fill:url(#path3834-7-26-0-0-3_15_);}
	.st216{fill:url(#path3834-4-9-1_15_);}
	.st217{fill:url(#path3834-7-26-0-0-7_15_);}
	.st218{fill:url(#path3834-7-2-4-6_15_);}
	.st219{fill:url(#path3834-7-26-9-8_15_);}
	.st220{fill:url(#path3834-4-9-2_15_);}
	.st221{fill:url(#path3834-7-26-0-0-0_15_);}
	.st222{fill:url(#path3834-7-26-9-9_15_);}
	.st223{fill:url(#path3834-7-2-4-5_15_);}
	.st224{opacity:0.75;clip-path:url(#SVGID_169_);fill:#2D3335;}
	.st225{display:none;clip-path:url(#SVGID_173_);}
	.st226{clip-path:url(#SVGID_174_);}
	.st227{fill:url(#SVGID_175_);}
	.st228{fill:url(#SVGID_176_);}
	.st229{fill:url(#SVGID_177_);}
	.st230{fill:url(#SVGID_178_);}
	.st231{fill:url(#SVGID_179_);}
	.st232{opacity:0.596;fill:url(#SVGID_180_);enable-background:new    ;}
	.st233{opacity:0.604;fill:url(#SVGID_181_);enable-background:new    ;}
	.st234{opacity:0.765;fill:url(#SVGID_182_);enable-background:new    ;}
	.st235{display:none;clip-path:url(#SVGID_183_);}
	.st236{display:none;clip-path:url(#SVGID_184_);}
	.st237{clip-path:url(#SVGID_186_);}
	.st238{clip-path:url(#SVGID_187_);}
	.st239{clip-path:url(#SVGID_188_);}
	.st240{clip-path:url(#SVGID_189_);}
	.st241{fill:url(#path3834-4-9_16_);}
	.st242{fill:url(#path3834-7-2-4-9_16_);}
	.st243{fill:url(#path3834-7-26-9-7_16_);}
	.st244{fill:url(#path3834-4-9-6_16_);}
	.st245{fill:url(#path3834-7-26-0-0-9_16_);}
	.st246{fill:url(#path3834-7-2-4-3_16_);}
	.st247{fill:url(#path3834-7-26-9-85_16_);}
	.st248{fill:url(#path3834-7-26-0-0-3_16_);}
	.st249{fill:url(#path3834-4-9-1_16_);}
	.st250{fill:url(#path3834-7-26-0-0-7_16_);}
	.st251{fill:url(#path3834-7-2-4-6_16_);}
	.st252{fill:url(#path3834-7-26-9-8_16_);}
	.st253{fill:url(#path3834-4-9-2_16_);}
	.st254{fill:url(#path3834-7-26-0-0-0_16_);}
	.st255{fill:url(#path3834-7-26-9-9_16_);}
	.st256{fill:url(#path3834-7-2-4-5_16_);}
	.st257{opacity:0.75;clip-path:url(#SVGID_186_);fill:#2D3335;}
	.st258{display:none;clip-path:url(#SVGID_190_);}
	.st259{clip-path:url(#SVGID_192_);}
	.st260{fill:url(#SVGID_193_);}
	.st261{fill:url(#SVGID_194_);}
	.st262{fill:url(#SVGID_195_);}
	.st263{fill:url(#SVGID_196_);}
	.st264{fill:url(#SVGID_197_);}
	.st265{opacity:0.596;fill:url(#SVGID_198_);enable-background:new    ;}
	.st266{opacity:0.604;fill:url(#SVGID_199_);enable-background:new    ;}
	.st267{opacity:0.765;fill:url(#SVGID_200_);enable-background:new    ;}
	.st268{display:none;clip-path:url(#SVGID_201_);}
	.st269{display:none;clip-path:url(#SVGID_202_);}
	.st270{clip-path:url(#SVGID_204_);}
	.st271{clip-path:url(#SVGID_205_);}
	.st272{clip-path:url(#SVGID_206_);}
	.st273{clip-path:url(#SVGID_207_);}
	.st274{fill:url(#path3834-4-9_17_);}
	.st275{fill:url(#path3834-7-2-4-9_17_);}
	.st276{fill:url(#path3834-7-26-9-7_17_);}
	.st277{fill:url(#path3834-4-9-6_17_);}
	.st278{fill:url(#path3834-7-26-0-0-9_17_);}
	.st279{fill:url(#path3834-7-2-4-3_17_);}
	.st280{fill:url(#path3834-7-26-9-85_17_);}
	.st281{fill:url(#path3834-7-26-0-0-3_17_);}
	.st282{fill:url(#path3834-4-9-1_17_);}
	.st283{fill:url(#path3834-7-26-0-0-7_17_);}
	.st284{fill:url(#path3834-7-2-4-6_17_);}
	.st285{fill:url(#path3834-7-26-9-8_17_);}
	.st286{fill:url(#path3834-4-9-2_17_);}
	.st287{fill:url(#path3834-7-26-0-0-0_17_);}
	.st288{fill:url(#path3834-7-26-9-9_17_);}
	.st289{fill:url(#path3834-7-2-4-5_17_);}
	.st290{opacity:0.75;clip-path:url(#SVGID_204_);fill:#2D3335;}
	.st291{display:none;clip-path:url(#SVGID_208_);}
	.st292{clip-path:url(#SVGID_209_);}
	.st293{fill:url(#SVGID_210_);}
	.st294{fill:url(#SVGID_211_);}
	.st295{fill:url(#SVGID_212_);}
	.st296{fill:url(#SVGID_213_);}
	.st297{fill:url(#SVGID_214_);}
	.st298{opacity:0.596;fill:url(#SVGID_215_);enable-background:new    ;}
	.st299{opacity:0.604;fill:url(#SVGID_216_);enable-background:new    ;}
	.st300{opacity:0.765;fill:url(#SVGID_217_);enable-background:new    ;}
	.st301{display:none;clip-path:url(#SVGID_218_);}
	.st302{display:none;clip-path:url(#SVGID_219_);}
	.st303{clip-path:url(#SVGID_221_);}
	.st304{clip-path:url(#SVGID_222_);}
	.st305{clip-path:url(#SVGID_223_);}
	.st306{clip-path:url(#SVGID_224_);}
	.st307{fill:url(#path3834-4-9_18_);}
	.st308{fill:url(#path3834-7-2-4-9_18_);}
	.st309{fill:url(#path3834-7-26-9-7_18_);}
	.st310{fill:url(#path3834-4-9-6_18_);}
	.st311{fill:url(#path3834-7-26-0-0-9_18_);}
	.st312{fill:url(#path3834-7-2-4-3_18_);}
	.st313{fill:url(#path3834-7-26-9-85_18_);}
	.st314{fill:url(#path3834-7-26-0-0-3_18_);}
	.st315{fill:url(#path3834-4-9-1_18_);}
	.st316{fill:url(#path3834-7-26-0-0-7_18_);}
	.st317{fill:url(#path3834-7-2-4-6_18_);}
	.st318{fill:url(#path3834-7-26-9-8_18_);}
	.st319{fill:url(#path3834-4-9-2_18_);}
	.st320{fill:url(#path3834-7-26-0-0-0_18_);}
	.st321{fill:url(#path3834-7-26-9-9_18_);}
	.st322{fill:url(#path3834-7-2-4-5_18_);}
	.st323{opacity:0.75;clip-path:url(#SVGID_221_);fill:#2D3335;}
	.st324{display:none;clip-path:url(#SVGID_225_);}
	.st325{clip-path:url(#SVGID_226_);}
	.st326{fill:url(#SVGID_227_);}
	.st327{fill:url(#SVGID_228_);}
	.st328{fill:url(#SVGID_229_);}
	.st329{fill:url(#SVGID_230_);}
	.st330{fill:url(#SVGID_231_);}
	.st331{opacity:0.596;fill:url(#SVGID_232_);enable-background:new    ;}
	.st332{opacity:0.604;fill:url(#SVGID_233_);enable-background:new    ;}
	.st333{opacity:0.765;fill:url(#SVGID_234_);enable-background:new    ;}
</style>
<g
   id="g1471"
   transform="translate(-326.25788,-266.40314)"
   style="display:inline">
	
	
	
	
	
	
	<g
   id="g1321"
   transform="translate(103.50996,1.002357e-5)"
   style="display:inline">
		<defs
   id="defs1171">
			<path
   id="SVGID_10_"
   d="m 1356.5,269.4 -2.4,0.3 -1.1,1.3 -1.1,4.3 0.7,1.8 1.6,-0.2 2.4,-2.1 7.7,2.4 3.6,2.1 3.3,-0.4 1.3,-1.8 1.8,2.3 1.1,-1.5 -0.9,-1.7 -3.8,-2.3 -9.7,-2.4 z m 52.5,2 -8.1,0.1 -3,1.2 -1.9,2.8 4.7,3.2 4,0.5 -1.7,-2.5 3.6,-3.4 4.4,-0.5 z m -99.9,20.8 -7.4,0.4 -1.3,0.1 -41.4,5.8 -4.2,2.5 -3.8,4.3 -2.9,5.8 -0.2,3.3 0.8,2.1 2.1,-2.2 0.1,0.3 0.4,1.5 -1.8,2.7 -0.5,2.9 0.6,1.3 1.3,-0.3 4,-3.6 0.1,-2.3 3,-1.4 2.1,-2.3 5.2,-1.4 6.9,-0.2 15.3,-1.2 6.8,-3.2 3.9,-4.3 9.1,-1.5 3.3,-2.3 3.4,-0.5 4.7,-3.3 -1.5,-1.8 z m -119.9,21.7 -8.6,0.2 -12.4,1.4 -18.5,2 h -0.2 l -35.2,2.3 h -0.7 l -10.5,-0.5 -5.7,-1.3 -9,-3.3 -3.9,-0.2 -3.1,2.1 -1.9,1.4 -0.5,1.6 0.2,0.1 1.6,1.4 -0.3,0.4 -1.7,2.5 0.3,2.8 0.1,0.8 2.6,4.5 0.4,0.2 6.7,3.8 2.3,0.2 4.9,0.5 8.1,-0.7 5.3,-2.1 5.4,-6 1.8,-0.8 0.3,-0.2 0.5,0.1 6.9,1.7 2.9,-0.5 8.8,2.1 2.3,-0.4 4.2,0.8 5.6,-2.5 7.9,-1.1 13.7,-3.1 8.2,-3.6 h 0.2 l 13.9,0.8 5.7,-3.8 -2.7,-1.5 -1.9,-1.1 z m 265.6,0.7 -9,0.5 -18.2,4.6 -7.5,3.2 -3.6,2.3 -7.2,2.5 -4.6,3.1 -10.3,1.7 -5.8,2.7 -15.5,2.2 -6.2,-0.8 -8,1.1 -1.4,0.4 -6.6,1.7 -15.5,2 -2.3,1.2 -15.5,6.1 -7.7,5 -4.1,-4.7 -5.6,-3.9 -11.7,-4.3 -2.7,1.2 -1.1,0.5 -1.2,0.3 -0.8,0.2 -9.6,2.6 -0.3,-0.3 -1.8,-2 -1,1.6 1.2,0.9 3.2,1.8 c 0,0 2.1,1.3 2.4,1.9 0.2,0.6 2,1.1 2.5,1.4 0.5,0.4 3.3,1.2 3.8,1.3 0.5,0.1 1.3,1.7 1.1,2.5 -0.2,0.8 -1.5,1.2 -2.2,1.4 -0.8,0.2 -2.1,0.3 -2.9,0 -1.6,-0.5 -3.4,-2.1 -4.5,-3.3 -0.9,-1 -2.4,-4 -2.4,-4 l -1.3,-0.8 h -2.9 c 0,0 -1.3,1.4 -1.5,2.1 -0.3,0.8 -0.6,2 -0.1,2.7 0.5,0.8 2.1,0.7 2.8,1.2 0.9,0.6 2,1.6 2.6,2.5 0.4,0.6 1.2,1.6 0.8,2.1 -0.5,0.7 -1.9,-0.2 -2.7,0 -0.8,0.2 -2.3,0.4 -2.5,1.2 -0.1,0.7 0.9,1.3 1.5,1.7 1.1,0.6 3.3,0.7 4,0.9 0.7,0.2 2.3,0.7 2.8,1.5 0.5,0.8 0.1,2.2 0.5,3.1 0.4,0.7 1.1,1.8 1.9,2 1.4,0.4 3.5,-0.3 4.7,-1.1 0.9,-0.6 1.1,-2.7 2.1,-3.1 0.4,-0.1 0.9,0.1 1.2,0.4 0.5,0.6 0.9,1.7 0.7,2.5 -0.2,0.6 -1.1,0.8 -1.5,1.2 -0.9,0.6 -3.1,0.8 -3.1,1.9 0.1,0.8 1.8,1 2.6,1.1 0.7,0.1 1.6,-0.3 2.2,-0.5 0.7,-0.2 1.8,-1 2.5,-0.6 0.4,0.3 0.5,1.1 0.4,1.5 -0.3,1 -1.5,2 -2.5,2.5 -1.1,0.6 -3.5,-0.1 -4.2,0.9 -0.3,0.4 -0.1,1.2 0.1,1.7 0.4,0.9 1.9,1.5 2.2,2.4 0.1,0.2 0.1,0.6 0,0.8 -0.2,0.3 -0.6,0.4 -0.9,0.5 -1,0.1 -2.5,-0.3 -3.3,-0.9 -0.7,-0.5 -1.1,-1.7 -1.6,-2.4 -0.4,-0.5 -0.8,-1.2 -1.2,-1.6 -0.6,-0.6 -1.4,-1.6 -2.2,-1.8 -0.7,-0.1 -1.7,0.3 -2.1,0.8 -0.8,1.1 -0.2,3.7 -0.2,4.4 0,0.7 -0.6,1.4 -1.3,0.9 -0.7,-0.5 -0.6,-2.9 -1.1,-4 -0.3,-0.7 -0.7,-1.7 -1.3,-2.2 -0.9,-0.8 -3.2,-1.4 -3.8,-1.3 -0.6,0.1 -1.3,1.3 -1.4,2 -0.2,1.3 0.5,3.4 1.1,4.1 0.6,0.7 2.9,3.3 3.7,4.4 0.7,1.1 0.3,1.2 -0.1,1.4 -0.8,0.4 -2.2,-0.8 -2.7,-1.3 -0.5,-0.5 -1.9,-2.4 -3.1,-3.9 -1.2,-1.5 -1.2,-2.6 -1.2,-4.1 0,-1.5 0.1,-2.2 0,-3.2 -0.1,-1 -0.2,-2.7 -0.6,-3.3 -0.4,-0.6 -1.4,-3.2 -1.4,-4.2 0,-1.1 0,-2.1 0.1,-3.3 0.1,-1.2 -0.1,-2.7 -0.7,-3.7 -0.6,-0.9 -0.9,-0.4 -1.2,-1.3 -0.2,-0.9 -0.1,-4.2 0.1,-5.4 0.2,-1.2 1,-6.2 1,-6.2 l -6.1,2.6 -0.4,-0.1 -15.2,-3 -2,1.8 -5.3,-0.6 -7.8,1.4 h -5.5 l -9.3,2.8 -6.6,0.8 -6.9,2.1 -13.4,5.8 -10.4,-0.6 -3.8,1.5 -6.9,4.3 -10.5,3.3 -2.9,2.4 -8.4,3.5 -2.5,1.8 -7.6,2.4 -10.1,6.1 -12.9,7.8 -3.7,0.6 -2.6,2.1 -4.5,-0.3 -16.5,3.7 -5.5,3.4 -9.6,7.3 -2.7,4.3 -0.5,2.7 -10.2,10.7 -0.2,0.3 -2.2,1 v 0 l -4,1.9 -0.5,0.4 -2.2,1.6 -0.5,0.4 -9.5,7.3 -8.8,8.3 -4.2,7 -3.6,10.2 1.9,4.5 -3.3,0.5 -1.1,2.1 0.5,8.1 -2.2,14.3 -3,6 -5.2,6.2 -1.4,4.4 0.6,4.7 0.6,4.6 3.8,9.4 1.8,4.3 -0.5,1.2 -5,-2 0.9,-2.7 -1.9,-4.6 -4.9,-1.7 -0.5,1.8 3.1,5.5 3.2,1.7 -1,3 2.1,5.3 2.4,1.7 3.1,-2.1 0.6,5 -2.6,3.1 2.2,2.4 0.7,6.3 -1.2,9.7 4,13.8 -0.2,4.1 -1.2,1.1 0.8,3.6 -0.7,2.6 -3.1,1.5 -0.6,1.1 2.9,6 0.5,8.9 -1.2,2.3 -2.6,1.9 h -2.6 l -3.7,1.8 -4.8,5.1 -1.3,3.7 4.1,9.6 2.5,0.9 2,1.7 6.5,5.6 7.1,2.8 7.5,-3.5 3.9,0.3 3,0.2 25.4,11 4.1,0.4 7.7,-1.7 3.3,-6.5 4.7,-1.7 3.8,0.3 5.6,-1.7 3.1,-3.3 2.1,0.2 3.1,4 1.2,5.3 4.6,-0.9 7,-0.2 4.9,1.8 0.8,0.3 0.4,0.1 0.3,0.9 0.3,0.9 -0.1,0.1 -1,0.7 -7.4,0.6 -3.5,1.4 -4.6,0.6 -20.6,30 -0.7,1.1 -1.3,6.4 -1.4,6.9 0.6,6.1 -0.1,4.3 -0.4,24.5 -0.3,4.3 -0.2,2.2 -1.2,2.1 1.8,1.8 0.6,0.1 1.1,0.1 0.6,0.9 1,1.6 1.1,0.1 4.9,6.9 2.8,2.4 3,4.6 3,4.6 0.1,0.1 0.2,0.3 2.9,4.4 0.1,0.2 -0.5,0.3 1.5,2 4.7,0.6 26.6,0.3 10.4,-0.6 17.7,0.3 3.8,-0.6 0.1,0.8 -0.1,1.5 -1.5,6.9 -0.7,1.9 0.6,1.9 1.5,1.2 1.8,0.4 3.7,-1.9 -4.2,3 -4.2,0.4 -9,-0.6 -1.1,0.7 5.2,2.8 2.2,0.4 3.1,1.9 0.9,1.6 0.3,1.9 5.2,6.9 1,3.5 1,9.7 1.8,7.4 -1.5,4 -1,1.5 -1.7,3.8 -1.6,6.5 -1.7,3.8 -1.1,4.1 -0.8,1.8 -2.1,3 -1.4,1.2 -1.8,2.7 -1.7,3.7 -3.2,4.8 -1.6,1.8 -0.6,1 -0.9,0.6 -3.2,2.6 -0.9,1.1 -1.6,1.2 -3.1,3.2 -3.2,3 -2.5,1.8 -2.1,0.9 -1.3,1.2 -4.4,2.7 -2.9,1.3 -0.7,0.3 -3.4,0.9 -6.5,2.9 -3.9,2.3 -1.2,0.6 -1.2,0.4 -2.8,2.2 -1.7,0.6 -4.3,3 -2.9,2.2 -4.5,2.4 -1.9,0.4 -1.6,1.2 -1.9,2.8 -1.5,4 -3.9,3.5 -1.5,0.6 -4.4,3.1 -2.4,2.7 -2.6,5.2 -2.5,8.3 -3.1,7.5 -3,4.9 -3.5,3.7 -3.2,1.6 -4.1,0.4 -4.4,-0.4 -6.8,2.7 h -2.1 l -5.3,1.8 -1.4,1 -6.8,2.5 -2,0.3 -2.3,-0.3 -3.3,-1.5 -5.9,-4.4 -2,-2.5 -2.9,-2.2 -3.8,-1 -5,-0.7 -3.7,-1.6 -2.4,-0.1 -3.9,-1.6 -1.9,-2.8 -1.6,-3.2 -1.1,-1.2 -0.7,-1.8 -1.3,-1 -3.1,-2.1 -6.2,-2.1 -5.4,-2.7 -1.8,-0.7 -4.2,-0.3 -4,0.6 -1.5,0.7 -9.4,2.1 -6.4,-0.3 -3.9,-1.6 -3,-2.1 -4.3,-5.5 -4.1,-3.4 -6,-2.2 -1.7,-0.9 -1.2,-1.2 -3.6,-1.8 -2.1,-0.6 -3.2,1.3 -3.2,-0.7 -0.2,-0.1 -0.6,0.1 -5.3,0.9 -1.5,0.3 -1.9,0.3 -0.1,-2.1 v -0.2 l 2.1,-1.7 -2.3,-2.6 -1.7,-0.3 -2.2,0.7 -2.6,0.9 -2.1,-0.2 -2.9,-1.9 -1.1,-1.8 -0.5,-0.9 v -0.4 l 0.1,-0.4 0.3,-2 -0.6,-1 -1,0.2 -2.6,0.5 h -0.2 l -1.1,0.2 -3.8,-2.2 -1.1,-0.6 1.6,-1.7 3.9,-0.3 2,-2.5 2.5,-1 1.5,-0.6 0.6,-0.2 1.8,1.2 2.2,1.4 0.5,-0.7 0.9,-1.3 0.4,-2.6 1.6,-0.9 0.8,-0.5 3.4,-7 2.5,-0.8 5.4,-6.8 2.6,-0.4 3.8,-5.3 1.4,-4.4 2,-1.7 1.9,-1.6 0.7,-0.6 -2.7,-1.5 -8.9,-1.1 -1.3,-0.2 -1.1,-6.7 0.5,-2.6 0.2,-0.8 -3.1,0.4 h -0.2 l -0.6,0.1 h -0.1 -0.2 v 0 0 l -0.6,-1.6 -0.1,-0.2 v 0 0 l 7.9,-1.2 0.5,-0.2 1.3,-0.4 1.3,-1.6 -2.5,-4.9 0.3,-4.5 2.9,-1.8 0.7,-0.5 1.4,-1.9 1.3,-2.4 0.3,-0.6 0.2,-2.4 -1.6,-4.3 -2.6,-3 -4,-7.2 -0.7,-4.7 -1.3,-2 -1.6,-5.5 -0.3,-0.9 -0.2,-0.6 -1.2,-1.8 -0.3,-0.5 -0.1,-0.1 -0.6,-0.4 -2.2,-1.8 0.9,-3 v -0.1 -0.1 l -5,-10.5 0.4,-2.6 -0.9,-1.9 0.6,-2.2 -1.6,-8.2 0.8,-2.8 0.2,-0.2 v 0 l 1.5,-1.9 1.9,-0.8 3.7,-1.5 1.9,-0.8 5,1.5 0.9,0.3 5.3,-2.7 h 0.3 l 2.3,-0.1 0.8,1.7 0.8,0.4 1.3,0.6 0.2,0.1 0.9,0.4 3.8,0.6 1.5,0.2 1.3,1.2 1.4,1.3 0.6,3.8 1.8,0.6 9.2,-2.6 4.5,-4.3 1,-0.9 h 2.3 3.2 l 13.7,-10.6 2.3,-4.2 v -0.9 l -0.2,-2.5 0.5,-1.4 1.8,-5.5 0.6,-1.7 6.5,-0.6 0.7,1.6 0.9,2.3 1.2,1.1 4.5,-5.7 v -0.3 -0.9 -0.2 l -1.9,-0.3 -0.7,-2.3 3.7,-2.6 0.1,-0.3 1.3,-2.5 v -1 -0.7 l -1.8,-2 -0.7,-0.8 -1.5,-4.6 0.3,-8.2 v -0.3 l -1.7,-3.5 -0.2,-0.1 -2.1,-0.8 -0.6,-1.8 V 697 l -0.5,-1.5 -3.9,-1 -14.6,-0.7 -5.1,-0.3 h -0.6 -0.1 l -2.1,0.8 -5.2,6.2 -2.7,2.1 -5.9,0.2 -2,-1.6 -2.4,-4.8 -3.4,-2.4 -1.2,-2.5 0.2,-2.6 -0.9,-2.2 -2,-1.7 -3.1,-2.7 -0.3,-1.8 4.1,-30.6 v -0.1 l -0.2,-3.9 -1.3,-2.4 -8.1,-14.6 -2.4,-6.3 -0.9,-2.4 -1.9,-1.9 -1.3,-2.6 -4,-7.9 -1,-2 -2.4,-2 0.1,-0.2 1.4,-1.9 -0.1,-0.1 -1,-1.3 -1,-1.3 -1.1,-1.5 -1.6,1.4 -1.4,-0.6 -1.6,-0.7 -4.2,2.3 -4.7,-1.5 -1.9,0.7 -7.2,2.6 -1.8,0.6 -2.6,2 -2.6,5.4 -5.1,5.5 -0.6,0.6 -0.7,0.7 -10.5,4.5 -1.3,1.1 -0.4,0.4 -5.8,0.9 -1.8,0.3 h -0.2 l -7.7,-3 -2.1,-2.2 -0.1,-0.1 -6,-2.7 -4.4,-3.5 -5.9,-13.8 0.2,-2.9 2.7,-6.1 v -0.1 -0.1 l -0.1,-1.4 -0.2,-3.3 h -0.1 l -1.2,-0.4 -2,1.3 -1.7,1.2 -1.6,-0.1 -2.1,-1.1 0.3,-2.3 0.1,-0.7 0.1,-0.5 v 0 l -4.9,0.3 -6.6,0.4 -3.7,0.2 -2.1,1.6 -1.4,2.8 -1.4,2.7 -1.1,25.6 -0.8,8.5 -0.3,3.3 -2.3,11.3 -0.3,1.3 -3.5,12.6 -0.1,0.3 -6.4,23.2 -4,9 -0.8,1.2 -0.3,0.4 -1,1.3 -1.4,1.9 -3.3,20.1 -0.1,0.7 v 0 l -1.1,12 -0.4,4 -1.6,9.4 -0.1,0.4 -1.4,10.6 -0.5,13.3 -0.1,0.8 -0.9,5 v 0 l -0.8,4.1 -0.9,11.3 -0.6,7.2 -2.7,14.6 -1.7,9.4 -2,7.1 -6.5,23.3 -0.2,0.8 0.2,0.8 -1.1,8.3 -2.1,3.4 -0.5,2.7 -0.3,0.9 -7.1,22.3 -4.2,10.5 -2.6,6.5 -5,12.5 -5.2,10.7 -0.1,0.2 -17.8,36.6 -0.3,0.5 v 0.1 l -2.8,5.7 -1.4,3 -8.2,13.5 -0.9,1.6 v 0 l -1.1,1.9 -3.2,5.4 -0.1,0.1 -5.1,8.6 -10.8,15.4 -9.7,11.9 -5.6,5.1 -3.7,3.3 -0.5,0.4 -4.9,6.9 -3.2,3.7 -31.5,36.7 -2.9,4 -6.9,9.5 -11.2,7.1 v 0 l 9.5,4.3 8.6,11.1 -10.9,-4.8 -5.5,-2.6 -2.2,-1.3 0.4,2.2 -1.8,3.5 -0.2,2.1 -0.2,2.9 0.8,1.9 0.5,1.2 -0.2,0.7 -0.4,0.4 -0.9,-0.2 -0.2,0.9 -0.3,1.4 3.2,0.9 -0.5,0.9 -7.9,0.8 -6.5,2.5 -3.1,-0.4 -1.7,-3.9 1.2,-0.9 1.5,2.4 8.7,-2.5 1.3,-1.6 1.1,-2.2 -0.6,-2.8 -3.1,-1.7 -4.6,-1 4.3,0.4 2.7,-0.8 -0.5,-1.7 -2.9,-0.8 c 0,0 1,-0.7 1.1,-1.3 l -9.7,-1.3 -5.2,1.7 c -0.1,-0.2 -0.1,-3 -0.8,-2.9 -0.1,0 0.2,2.3 -0.7,3.3 -0.5,0.6 -0.2,1 -0.2,1.1 -0.2,0.6 -0.8,2.5 -0.9,2.4 0,0 -3,2.1 -3.6,2.7 0.8,-1.1 3.3,-4.8 3.3,-4.8 0.3,-0.2 0.3,-2.5 1.1,-2.2 0.3,0.1 0.3,-4.3 0,-4.3 -0.5,0 -1.4,-0.3 -2.3,0.7 -0.7,0.8 -1.5,2.8 -2,3.3 -1,0.9 -1.2,0.2 -1.3,0 -0.6,-1.4 3.6,-6.4 3.8,-6.8 l 0.8,-0.7 8.5,2.5 11.2,3.1 1.6,-0.3 0.5,-0.8 0.6,-1 -1.9,-1.9 -4.6,-2.1 -7.5,-3 -7.9,-0.2 -5.1,2.4 -3.1,2.7 -2.4,3.7 -1.1,7.2 1.1,6.4 2.5,7.4 2.2,-3 c -0.3,-1.1 0,-1.6 0,-1 l 0.1,0.7 9.5,0.3 1.6,4.3 -0.8,3 2.4,3.8 1.1,-0.3 0.5,-2.4 1.4,-1 4.5,4.1 -0.5,2.2 h -1.2 l -4.3,8.3 -1.5,1.4 -1,1 -0.8,2.1 0.6,2 7.7,8.9 3,5.2 1.4,4.7 -0.7,2 -3.2,2.4 -0.2,1.5 2.1,-0.2 5.4,-0.4 2.7,3.7 3.4,2.4 4.6,0.6 2.6,1.7 1.5,-1.4 1,2.8 2.1,0.4 2.8,0.7 4.1,-0.6 6.4,3.9 2.3,3.2 5.9,2.7 2.7,0.3 5.8,3.8 2.7,3 3.7,1.3 2.5,-1.4 0.4,1.5 -2,1.6 -3.4,0.5 0.1,1.4 5.7,6.6 6.7,2.6 10.9,4.4 9.1,2.2 4.2,2.4 h 1.4 l 2.8,2.6 4,1.3 9.9,6.4 1.8,1.2 0.3,0.2 4.2,1.6 5.9,0.5 4,0.9 9.7,0.3 10.8,4.8 4.3,3 12.4,-1.5 11.8,-4.7 4.8,-1.2 0.3,-0.1 5.7,-3.9 v 0 l 0.8,1.7 0.5,1.1 1.8,4 -3.2,0.5 -4.9,6.4 -4.1,2.3 0.2,0.6 0.4,1.3 -1.7,-0.3 -0.9,-1.2 -7.9,3.1 v 0 l -1.2,0.5 -1,0.1 -22.2,1.3 -5.6,-0.8 -2.4,-1 v 0 l -4.3,-1.7 -5,-2 -1.3,-1.5 -1.8,-0.3 -3.4,0.8 -3,2 -0.9,-0.6 -0.4,-1.9 3.9,-3.4 -1.8,-0.3 -2.1,2.4 -2,0.1 -1.3,1.1 -1.2,-0.6 -0.4,-6.2 v -0.2 l -0.8,-0.2 h -0.1 l -0.1,0.1 -2.5,2.6 -0.7,-1 -1.3,-1.7 v 0 l -1.4,-0.1 -1.9,1.5 -5.2,1.5 -5.6,0.2 -6.6,-2.2 -1.8,-1.4 -2.7,-2.1 -10.4,-3.2 -5.7,-6.1 -3.8,-5.8 -6.5,-4.5 -2.2,-3 -2.5,-1.1 -2.5,-3.5 -2.9,-5.3 -2.8,1.1 -11.2,-4.9 -8.2,-5.7 -2.5,-1 -2.9,-1.1 -3.1,-2.8 -10.7,-5.2 -4,-3.4 -2.2,-0.3 -1.8,1.3 -1.3,-2 1.7,-0.7 -1,-4.2 -2.4,1 -0.1,1.6 -1.2,0.3 -2.6,-2.8 -1.5,-1.6 -4.2,-3 0.9,-2.8 -2.1,0.1 -3.6,0.2 -3.7,0.2 -2.2,0.1 -10.3,3.6 -8.4,4.3 -0.6,0.3 -3.3,0.7 -7.3,1.5 -2,0.4 -4.8,3.1 -2.2,2.8 -1.1,3.2 0.9,5.1 3.1,6.3 -0.6,0.9 -0.6,0.9 -0.5,0.8 0.6,2.6 0.1,0.5 0.3,1.3 1.9,-1.3 0.3,-3.7 2.2,1.1 h 2.1 l 5.4,-5.7 v 0 h 0.3 l 1.5,-0.2 1.6,-2.4 10.1,-2 1.9,-1.6 5.6,-0.1 2.1,1.3 2.7,0.4 2.3,-0.5 3.9,0.6 0.6,1.2 0.1,0.2 1.9,4.2 3.6,4.1 1.3,4.5 v 4.7 l -1.2,5 1.1,3.8 1,0.9 2.9,-1.1 0.4,3.9 2.6,4.6 2.4,5.9 0.3,3.4 1,1.3 0.7,-0.3 0.4,-0.1 0.6,0.5 2.2,1.7 h 0.2 l 2.2,0.5 5.4,-0.6 2.1,0.8 3.6,-1.1 10,2.8 5.7,2.7 3.2,4.8 0.6,0.9 2.8,2.8 5.2,0.7 1.5,1.2 v 0 l 0.5,0.3 4.8,1 3.8,3.2 1.6,0.4 h 0.2 l 8.5,5.3 5,1.4 h 0.3 l 16.5,-1.5 4.3,-2.7 6,-2.4 2.9,-1.1 2.4,-3.3 0.2,-0.6 1,-2.4 1.1,-2.6 0.5,-1.3 2.5,-1.2 0.1,-0.1 1.1,-2.1 3.1,1 -2.1,3.7 -0.4,0.6 v 0 l 0.9,0.2 v 0 l 0.8,-0.8 2.3,-2.4 0.7,-0.7 0.8,2 v 0.1 l -0.8,3.1 -1.4,3 -3.8,8 -3.1,3.5 -4.8,2 -2.7,2.1 -4,1.4 -2.1,1.8 -8.9,1.6 -8.2,3.6 -3.5,0.6 -6.4,-0.5 -7.5,-0.2 -4.3,-1.2 -1.8,1.5 -4.3,-0.8 -0.7,-0.3 -9.8,-4.2 -7.2,-4.4 -3.1,-0.5 -7.6,1.6 -3.1,3.4 -0.2,1.2 -0.6,3.5 0.9,2.3 2.6,0.8 1.9,1.9 1.9,5 4.7,0.1 3.6,0.1 2.9,1.1 2.4,-0.6 5,-1.2 -0.2,1.7 -1.3,0.6 1.7,3.5 h -1.2 l -6.5,-0.4 -12.6,1.2 -2.4,-0.3 -4.7,-3.6 -4.2,-1.4 h -5.5 l -14.4,8.9 -2.7,-0.8 -6.8,2 -2.1,0.4 -1.8,1.5 -0.2,1 -0.5,2 1,2.6 1.9,1.5 h 1.4 0.8 l 2.2,1.3 5.1,3 3.2,7.4 5.4,1.4 1.9,1.9 2.4,2.5 0.7,2.5 3,3.8 1.1,1.4 16.6,3.6 3.9,-2.2 1.5,1.5 4.1,0.8 2.5,-1.1 8.4,4.2 1.3,1.5 4.8,2.6 1.8,-0.3 1.6,-2 1.5,-1.8 7.5,2.8 2.3,0.9 0.9,0.3 2.7,3.7 1.6,0.7 2,1 1.4,1.2 1.7,1.5 1.1,0.9 0.3,0.8 0.8,1.9 v 0.3 l -0.2,2.6 2.7,5.9 0.5,8 -3.4,0.8 -4.3,3.1 -1,-2 -2.9,0.6 -0.8,-0.6 -0.5,-0.4 -1.8,0.1 -2.6,2.3 -1,0.8 -1.1,-1.4 -0.6,0.2 -2.1,0.9 v 0 l -2.7,1.4 -3.1,0.1 h -0.9 l -0.1,-0.4 -0.6,-2 -3.4,0.4 -1.4,-1.2 -1.9,0.3 -1.9,1.6 -3.3,2.8 -2,0.8 -3.1,1.2 -1.1,1.6 -3.5,-0.5 -3.8,-3.1 -2.8,-0.4 -7.1,-4 -3.7,-5.3 -7.6,-7.2 -2.6,-5.5 1.1,-2.2 -3.5,-8.4 -6.5,-3.9 -2.3,-1.4 -3.9,-3.4 -2.8,-0.6 -8.6,-4.5 -5,-1.5 -7.1,1.6 -4.8,-7.4 -1.6,-1.4 -1.3,0.1 -4.7,0.2 -3,1.8 -4.9,-0.8 -4,0.4 -3.6,0.4 -2.3,-0.2 -4.1,-3.7 c 0,0 -4.8,-0.9 -6.4,-0.7 -1.6,0.2 -3.7,2.5 -4.6,2.5 -0.9,0 -3.7,0.2 -4.6,0.2 -0.9,0 -5,0 -6,-0.5 -0.9,-0.5 -3.9,-0.7 -6,-0.7 -2.1,0 -2.8,0.2 -3.9,0.5 -1.1,0.2 -1.8,2.7 -2.7,3.2 -0.9,0.5 -1.8,4.1 -1.8,5 0,0.9 -2.5,3.9 -2.5,3.9 0,0 -3,2.3 -4.4,2.5 -1.4,0.2 -3.2,-0.7 -4.4,-1.8 -1.1,-1.1 -3.7,-5.5 -3.9,-6.4 -0.2,-0.9 -2.7,-4.8 -2.7,-6.2 0,-1.4 -2.5,-3.9 -3.4,-4.6 -0.9,-0.7 -4.8,-3.9 -6,-4.1 -1.2,-0.2 -1.8,-3 -3,-3.2 -1.1,-0.2 -2.1,-3.4 -2.1,-5.5 0,-2.1 -0.7,-4.3 -0.7,-4.3 l -2.1,-2.2 -1.6,-0.6 -4.7,-1.7 -5.7,0.1 -3.1,-1.2 -3.3,0.6 -5.9,3.3 -6.1,4.9 -3,0.6 -7.8,5 -3.3,2.2 -7.3,5.9 -8.5,4.9 -2.8,4.9 -0.2,5.5 3.5,2 6.8,6.5 8.9,5.6 7.1,8.6 5.2,10.1 7.2,6.1 1.3,0.4 2,0.7 5.3,4.8 0.5,-0.1 2.8,-0.6 h 0.2 l 0.7,-0.3 2.9,-1.4 1.6,-0.7 1.2,2.4 2.6,0.2 4.6,-0.5 1.7,0.5 3,-2.1 2.3,-3 2.6,-0.4 0.7,-0.1 0.2,-1.8 2.1,-1.6 2.3,0.6 0.8,-1.4 4.6,-0.9 1.4,-1.9 1.8,2.7 -1.6,3.4 -1.8,-0.4 -0.9,0.8 -1.1,1 6.2,5.1 v 0 l 4,3.3 1.4,1.2 1,1.9 1.7,3.2 0.1,1.2 0.1,1 2,2.4 6.1,1.4 1.7,-0.9 4.6,1.5 2.6,0.9 0.4,1.7 3.6,2.4 6.7,6.5 1.1,1 1.9,-0.3 12.6,-2 7.4,-3.3 1.1,1 1.8,0.1 4.4,0.4 4.2,-10.8 2.3,-3.1 0.3,-1.3 0.5,-2.6 2.5,-5.1 -1.1,-3 1.5,-2.2 6.3,-3.9 5.3,-0.4 3,-1.8 1.2,0.1 10,8.4 3.6,2.5 4.2,1.5 1.5,-0.3 4.2,4.5 2.5,6 6.6,3.3 13.6,3.4 3.4,2.1 4.4,1.7 3.8,0.2 1.6,-0.7 3.4,-1.5 3.7,-0.4 3.5,-3.2 3.5,-0.7 1.9,1 1.5,1.8 6.4,-0.6 3,2.1 2.8,5.9 -0.8,4.8 1.1,3.5 c 4.3,-1 27.3,-2.1 29.8,0.8 0.5,2 0.8,5.4 2.8,6.5 4.6,2.8 22.4,3.7 27,0.3 2.3,-1.7 1.4,-5.1 3.2,-7.1 -0.1,-0.4 -0.3,-1.6 -0.5,-1.9 -0.7,-1.3 -2.3,-2.6 -3.1,-4 -1.2,-2 -1.9,-4.4 -3,-6.4 -1.9,-3.2 -6.3,-6.2 -7,-9.9 -0.9,-4.6 3.4,-7.2 4.2,-10.9 -0.3,-2.5 -1.8,-4.7 -4.4,-5.2 l -0.8,-1.6 c 0.8,-1.3 2,-1.7 3.3,-2.3 7.3,-3.5 15,-5.7 22.1,-9.8 1.9,-1.1 3.4,-3.5 5.4,-4.1 1.2,-0.4 2.8,-0.4 4.1,-0.4 2.3,-0.1 14.9,-2 15.5,-1.8 l 1.3,1.2 c 0.8,1.7 -1.3,10.6 -2,12.7 -0.4,1.2 -1.3,2.2 -1.8,3.4 -1.8,4.5 -0.8,9.6 1.3,13.8 3.4,1.9 11.7,-4.3 15.5,-4 0.8,0.1 2,0.5 2.8,0.8 2.1,0.8 4.7,2.4 6.8,2.9 4.4,1.1 3.3,-0.8 9.1,2.2 2.1,0.3 6.1,-2.2 8.8,-2.5 l 0.6,-1.6 c -1.1,-1.5 -0.7,-3.6 -1.5,-5.3 l 0.6,-1.2 c 1.1,-2.3 4.5,-2.7 6,-4.4 2.5,-2.8 2.6,-7.3 5.7,-9.6 0.9,-0.6 2.3,-0.9 3.2,-1.5 1.7,-1 3.2,-3.5 4.7,-5.2 1.9,-1.4 4.3,-1.9 6.1,-3.2 1.9,-1.4 2.5,-4.2 4.3,-5.8 5.7,-5.1 16.4,-1 21.6,3.5 2.2,1.9 3.9,4.5 6.6,5.9 0.7,2.2 -0.8,4.3 -0.7,6.5 0.1,1.4 0.8,2.4 0.5,4 -0.8,1 -1.8,1.5 -2.6,2.4 -1.9,2.2 -2.2,11.5 -1.4,14.3 0.4,1.4 1.6,3.3 2.3,4.7 -5.2,0.3 -8.3,-3.4 -12.5,-5.3 -1.9,-0.8 -3.9,-0.2 -5.7,-0.9 l -1.2,1.3 c -0.4,2.3 -0.5,4.5 -0.5,6.8 3.5,7.2 18.8,2.5 24.4,1.6 2.4,-0.4 9.9,-1.1 12.2,-0.9 6.4,0.7 9,8.2 13.4,9.3 0.4,-0.1 1.7,-0.3 2,-0.4 1.6,-0.7 2.4,-2.6 3.7,-3.7 5,-4.3 18.3,-15.7 20.7,-21.2 4.3,-10 -2.7,-13.6 8.7,-21.7 l 1.9,0.3 c 2.2,2 0.6,4.9 4.3,7.6 2.2,0.6 4.3,-0.6 6.4,0.4 2.8,1.4 8.7,16 10.3,19.5 -0.3,7.4 -8.9,11.9 -9.2,19.2 -0.3,8.7 15.5,19.8 18.7,29.1 1.3,3.6 0,11.4 3.6,13.6 10.6,6.5 13.8,-4.5 22.3,1.1 2.7,1.8 6.6,1.6 8.8,4.4 1.2,2.7 -3.4,17.3 -4,21.4 l 0.8,1.6 c 2.1,1.7 5,1.5 7.5,0.9 2.4,-0.6 4.6,-1.9 7.2,-1.9 6.1,-0.2 11.1,3.8 19.2,2.5 4.8,-0.7 5.5,-6 11,-5.5 3.3,0.3 7,2.2 10.5,3.2 1.8,0.5 3.9,0.6 5.7,-0.2 1.8,-0.9 2.7,-3.5 4.6,-4.4 1.8,-0.8 4,-0.4 5.8,-0.9 2,-0.6 6.5,-2.2 8.3,-3.1 2.7,-1.3 3.9,-4.6 6,-6.5 3.1,-1.1 9.3,-0.2 11.6,2.1 1.2,1.1 2,3 3.1,4.3 1.2,1.4 2.7,2.2 4.1,3.2 4.9,3.6 5.8,8.6 5.6,14.3 -0.1,3.7 -1.2,10.4 0,13.6 1.9,2.4 23.8,8.6 28.4,11.1 5.6,3 1.8,8.6 9.4,10.2 2.6,0.5 5.1,-1.1 7.6,-1.3 2.1,-0.2 4.6,0.7 6.6,0.3 5.1,-1 6.5,-4.9 12.7,-1.9 12.1,5.7 6,7.1 9,12.6 0.8,1.5 2.5,2.6 3.6,3.8 4.3,-0.5 7.9,-2.8 11.9,-4.1 2.8,0.2 4.1,2.6 5.7,4.4 1.1,1.2 2.7,2.4 3.2,4 0.3,0.9 0,1.8 -0.3,2.6 -2.7,6.8 -12.7,8.8 -12.7,15 1.2,4.6 6.4,4.3 8.2,6.5 l 0.5,1.8 c -1.2,6.8 -8.4,2.6 -11.8,3.5 l -1.2,1.3 c 1,1.9 1.8,3.9 1.8,6 l -0.2,1.7 c -0.2,1.7 -1.2,3.1 -1.5,4.8 -0.2,1.4 0.1,3 -0.2,4.3 -0.2,0.9 -1.2,2.5 -2.1,3.1 l -1.9,0.3 c -1.5,-1 -3.1,-2.5 -5,-2.4 -1.9,2.8 0.4,5.7 -4,10.8 -0.9,3.2 1.5,4.3 3.8,5.7 l 0.7,1.5 c 0,2.4 -1.4,4.2 -1.8,6.5 -0.2,1.4 0.1,2.7 0.1,4.1 0,0.6 -2.4,8.2 -2.6,8.4 -3.1,5.2 -16.5,8.8 -13.4,17.1 3.4,3.2 6.6,-0.6 9.5,-1.9 l 1.8,0.7 c 2.4,3.9 -0.6,7 -2.8,10.2 -4.8,7 -4.5,18.2 -13.9,15.7 l -0.9,0.7 c -0.6,0.5 -0.4,0.2 -0.7,0.9 -1.1,2.4 -1,5.2 -2.2,7.7 -1.2,2.3 -3.5,3.4 -4.2,6.2 -3.9,-0.4 -8,0.7 -11.2,2.8 -0.3,2.4 -0.3,6.4 -3.1,7.4 -1.9,7.1 -0.7,10.7 2.2,17.1 3.5,7.7 12,8.8 18.2,13.3 -0.2,1.3 -0.7,2.7 -1.4,3.8 -0.2,3.3 2.9,5.7 2.6,8.9 -0.4,3.8 -3.6,7.4 -4.5,11.4 l 2.2,1.5 c 4.5,0.4 4.4,-3.9 10,-3.1 l 1,1.4 1.9,0.7 1.7,-0.4 c 0.8,-1 1.7,-1.8 2.5,-2.7 2.5,-2.6 4.2,-8.3 8.2,-8.7 l 1.3,1.2 c 0.2,1.7 1,3.6 2.5,4.6 6.2,0 5.5,4.4 9.3,7.2 3.4,0.3 7.9,-3.7 11,-5.2 l 1.7,0.6 c 0,1.1 0.3,2.6 0.8,3.5 3,1.1 8.9,-2.7 10.6,-5.2 1,-0.1 2.1,0.1 3.1,0.3 0.8,1.8 0.4,4.5 0,6.4 l 1.6,1.4 c 5.7,0.5 17.8,-5 21,-4.6 3.3,0.4 5.3,3.9 8.7,4 1.2,0 2.5,-0.7 3.7,-0.7 1.2,-0.1 2.4,-0.2 3.6,-0.4 4.4,-10.8 -5.3,-13.6 -11.1,-20.6 -0.4,-1.1 0.5,-2.7 1,-3.7 l 1.1,-0.7 h 1.4 c 5.1,3.4 6.9,1.6 9.3,-3.5 3.5,-7.5 -2.3,-11.5 -1.1,-16.4 3.1,-2.8 8.1,-6.1 12.6,-5.5 0.6,0.5 1.2,1.2 1.6,1.9 l 1.5,0.5 c 5.1,-1.1 3.2,-6.8 5,-9.6 0.5,-0.8 2,-2 2.8,-2.7 0.9,-2.4 -4,-8.4 -4.3,-11.5 -0.5,-4.8 2.1,-7.3 3.4,-11.4 l -0.4,-1.2 c -2.1,-1.6 -6.3,-0.9 -8.9,-1.9 -0.1,-0.9 -0.5,-2 -1.1,-2.7 -1.7,-0.7 -4.3,-0.1 -6.3,-0.6 -7.1,-1.8 -6.5,-8.5 -7.4,-14.3 0.4,-0.8 1,-1.6 1.7,-2.1 0,-0.8 -0.5,-2 -1.1,-2.5 0.2,-3.4 4.6,-3.9 6.1,-6.7 l -0.2,-1.6 c -3.8,-5 -14.3,0.5 -19.4,-0.5 -3.8,-0.7 -5.3,-5.2 -9.9,-3.7 -4,1.3 -12.4,8.1 -16.2,6.2 -1.1,-4.1 2.8,-7.5 3.1,-11.2 -1.5,-2.9 -2.4,-5.7 -4.1,-8.6 -4.4,-1.8 -4.1,0.6 -6.4,-4.7 0.5,-2.6 1.2,-5.8 0.8,-8.4 -0.3,-2.3 -3.4,-3.6 -2.4,-6 1.2,-3 8.3,-1.8 12.6,-9 l 1.5,-0.5 c 3.6,1.4 2.8,13.7 10.4,15.1 1.7,0.3 3,-0.4 4.7,-0.6 0.8,-0.6 1.1,-1.3 1.7,-2.1 0.8,-1 2.1,-1.7 2.8,-2.7 2.1,-3 2,-7.7 3.8,-10.9 1.6,-3 5.2,-6.1 7.8,-8.6 3.6,-4 9.7,-4.8 13.5,-8.4 2.4,-2.3 3.6,-6.7 5.8,-8.9 1.6,-1.5 5.7,-2.6 8.1,-3.5 2.3,-0.8 3,-3.7 4.9,-5.2 3.7,-2.9 8.1,-3.9 12.3,-5.9 4.5,-2.2 8,-5 11.7,-8.1 0,-0.8 -0.3,-2.2 -0.9,-2.8 -3,-1.8 -5.9,-0.8 -7.9,-4.9 l 0.5,-1.2 c 3.4,-1.8 6.4,-4.7 9.7,-6.7 0.1,-3.4 -4.1,-4.3 -6.7,-3.2 -3.3,1.3 -15.4,12.2 -18,12.8 -0.5,0.1 -2.6,-0.1 -3.2,-0.1 -1.8,-1.2 -2.5,-1.7 -3.6,-3.7 -1.1,-2.2 -3,-20.1 -2.4,-22.5 0.5,-1.9 2.2,-2.7 3.7,-3.7 -0.3,-2.7 -2.4,-5.8 -2.3,-8.1 1.3,-2.2 3.6,-3.4 5.4,-5.2 2.2,-2.3 6.2,-6.7 7.7,-9.4 1.1,-2.1 1.5,-4.4 2.7,-6.5 1.8,-3.4 5.3,-5.8 7.2,-9.3 2.9,-5.3 4.6,-10.7 7,-16.3 2.2,-0.6 4.4,-1.7 6.7,-2.3 1.2,-1.8 1.5,-4.8 3,-6.2 2.8,-2.7 7.5,-5.3 8.9,-9.3 1.3,-3.8 -2.9,-13 -2.1,-15.2 0.9,-1 2.1,-1.5 3,-2.5 l -0.3,-1.4 c -1,-1.3 -3.5,-2 -5.1,-2.2 l -0.7,-1.2 c -0.3,-2.3 2.8,-11.6 3.1,-14.9 0.3,-3 -1,-5.4 -0.9,-8 0.1,-3.4 2.7,-6.6 3,-9.9 0.5,-5 -5.7,-9.7 -4.6,-18.5 0,-2.1 0.1,-4.4 -0.8,-6.4 -3.1,-6.3 -9.5,-10.6 -12.6,-16.7 -1.3,-2.5 -2.8,-8.2 -4.6,-10 -2.3,-2.3 -5.5,-2.6 -7.6,-5.2 -2.7,-3.3 -2.9,-7.8 -5.2,-11.2 -1.6,-2.5 -5.1,-3.4 -7.2,-5.7 -1.4,-3.2 6.1,-20.6 7.3,-25.3 l -0.9,-0.9 c -2.9,-0.7 -5.7,-2 -8.7,-2.8 -5.8,-1.5 -17.3,-3.2 -19.2,-10.3 0,-0.1 0,-0.1 -0.1,-0.2 -0.3,-1.3 -0.1,-3 0.2,-4.8 v 0 c 0.1,-1 0.3,-2 0.3,-2.9 0,-3.5 -1,-6.9 0,-10.3 0.4,-0.6 1.5,-1.3 2.2,-1.5 l 0.5,-0.9 c -3.3,-3.5 -12.5,-11.3 -17.4,-11.7 -3.1,-0.3 -6.4,1.4 -9.7,1.2 -1.6,-1.4 -2,-3.7 -1.9,-5.8 0.7,-0.4 1.2,-0.8 1.8,-1.4 2.5,-2.6 9.8,-5.1 9.8,-9 -0.3,-1.2 -1.3,-2.4 -2.2,-3.3 0.2,-0.8 0.8,-1.6 1.4,-2.2 l 0.2,-1.8 c -0.4,-0.8 -0.8,-1.6 -1.1,-2.5 -0.6,-0.6 -2,-1 -2.8,-0.9 -4.6,-4.3 2.3,-10.9 -8.9,-13.1 l -0.5,-1.3 0.6,-1.2 c 0.7,-0.5 1.6,-1.1 2.4,-1.3 l 0.5,-0.9 c -0.7,-0.6 -1.6,-1 -2.4,-1.3 v -1.1 c 7.7,-6.8 13,-0.8 19.7,-3 2.6,-0.8 7.4,-6.6 9.9,-8.5 4.9,-3.9 4.2,-1 6.7,-8.6 3.1,1.8 5.6,4.5 9.1,5.6 9.1,2.9 18.7,3.2 27.3,7.7 0.9,-0.8 1,-2.8 1,-4 0.2,-9.8 -5.7,-5.9 -9.4,-12.6 -2.6,-4.7 -0.6,-5.2 -6,-10.2 -1.3,-1.2 -3.7,-1.2 -4.5,-2.5 0,-1.5 1.4,-2.5 2.1,-3.7 1.8,-0.6 4.6,-0.1 6.7,-0.3 1.5,-0.1 2.7,-0.7 3.9,-1.5 1.2,-0.8 2.4,-1.6 3.9,-1.3 1.4,0.3 6.6,4.2 7.5,5.5 0.6,0.9 1.6,4.1 1.9,5.3 0.7,0.6 1.6,1 2.4,1.3 0.7,1.3 0.8,2.7 1.4,4 3.2,6.4 11.3,2.5 17,2.9 1.6,-0.1 3.6,0.1 5.2,-0.3 1.3,-0.3 2.3,-1.6 3.7,-1.8 2.5,-0.4 6.1,3.3 7.3,5.2 1.6,2.4 1.2,4.9 3.2,7.7 1.6,0 2.9,-0.8 4.4,-0.9 3.6,-0.3 11.4,1.7 13.9,4.6 0.6,2 -1.1,4.7 -0.7,7.4 2.5,1 6.4,-1.4 9.1,-1.3 1.7,0.1 3.3,2 4.7,1.6 0.4,-0.6 -0.3,-13.9 -0.7,-14.8 -0.6,-1.5 -1.7,-3.3 -2.5,-4.7 l 0.5,-1.5 c 2,-0.9 3.7,0.5 5.4,1.2 1.3,0.5 7.8,2.4 8.9,2.4 1,0 2.1,-0.6 3.1,-0.5 1.3,0.2 4,3.3 4.9,4.3 1.7,0.2 2.7,-0.4 4.3,-0.9 8.8,-2.7 4.8,-3.4 9.6,-6.9 2.2,-1.6 5.3,-2.1 7.7,-3.2 2.7,-1.3 4.6,-4.1 7.1,-5.8 1.1,0 2.3,0.2 3.3,0.5 4.2,-1.3 7.8,-4.5 11.9,-6.2 5.7,-2.3 18.2,-4.1 21.6,-5.8 2.7,-1.3 5.2,-4.9 8.6,-3.9 1.3,0.4 1.9,1.8 2.7,2.8 2.4,3.1 5.5,4.4 9,5.9 0.6,0.1 7.3,-3.8 8.6,-4.4 0.9,-1 1.2,-2.5 2.1,-3.4 3.4,-3.3 9.1,-4.1 12.1,-8.3 2.8,-4 2.6,-12.8 5,-15.4 2.3,-2.6 6.6,-1.1 8.2,-4.6 2.1,-4.3 -1.2,-8.2 -0.9,-12.3 -1.9,-1.6 -4.4,-4.1 -5.8,-6.1 -5.9,-8.2 -11.8,-8.1 -19.5,-13.2 -9.3,-6.3 -6.9,-7.8 -19.5,-6.7 l -1.1,-0.7 c -0.7,-1.4 0.2,-5.5 0.2,-7.3 0,-1.5 0.8,-7.7 1.9,-8.7 3.5,-3.3 13,-0.8 16.7,-7.1 1.7,-2.9 0.6,-5.2 1.3,-8 0.1,-0.4 0.4,-0.8 0.6,-1.2 1.1,-2.3 1.4,-4.7 2.4,-6.9 0.1,-0.3 0.6,-0.9 0.8,-1.1 4.4,-4.8 27.8,0.6 33.6,-3.1 6,-3.9 3.3,-11.3 5.6,-16.5 1,-2.3 2.6,-2 3.8,-3.5 1.7,-2.1 2.7,-6.6 5.1,-8 1.7,-0.9 15.5,-2.4 18,-5.7 5.1,-6.8 5.7,-18.1 11.8,-23.4 5.8,-1 15.2,0 19.5,-4.3 l 0.2,-1 c -0.8,-2.2 -1.5,-4.5 -2.8,-6.5 -7,-14.5 -6.5,-16.2 -2.7,-31.9 1.2,-5.1 10.8,-20.3 11.4,-24.2 0.5,-3.8 -0.9,-8.9 -1.5,-12.7 -1.8,-11.9 -2.1,-10.2 -11.4,-16.3 -1.9,-1.3 -3.4,-2.5 -4.5,-4.7 -1.9,-3.8 -6.3,-21 -10.3,-22.4 l -1.2,0.6 c -2.5,3.8 -6.4,11.6 -11,13.3 -2.5,1 -7.5,-2 -10.2,-2.4 -1.7,-0.2 -3.5,0 -5.3,-0.4 -3.9,-0.9 -7.6,-3.8 -11.6,-4.2 -0.8,-0.1 -1.2,-0.2 -2,-0.5 -0.5,-0.2 -1.3,-0.5 -1.7,-0.8 -1.5,-1.1 -1.4,-3.3 -2.8,-4.4 -6,-1.9 -25.1,5.7 -32.9,-3.1 -3.3,-3.7 -10.6,-8.3 -14.9,-11.2 -0.2,-0.9 -0.6,-1.7 -1,-2.5 0,-1.6 0.6,-3.5 0.9,-5.1 0.6,-3.4 0.1,-14.7 -0.9,-18.1 -0.8,-2.5 -3.2,-5.6 -4.5,-8 l 0.5,-1.5 c 2.7,-0.4 8,2.6 10,-0.9 1,-1.7 0,-3 2,-5.3 2.8,-0.1 8.8,1.6 10.9,-0.6 l 0.5,-1.3 c -2.3,-5 -11.4,-7.8 -13.5,-10.8 1.2,-9.1 5.9,-11.4 0.6,-19.3 -0.1,-0.1 -0.1,-0.2 -0.2,-0.2 0,0 -0.1,-0.1 -0.1,-0.1 -0.1,-0.1 -0.1,-0.2 -0.2,-0.3 0,0 0,-0.1 -0.1,-0.1 -0.1,-0.1 -0.2,-0.2 -0.2,-0.3 0,0 0,0 0,0 -0.1,-0.1 -0.2,-0.3 -0.3,-0.4 l 0.6,-1.5 c 0.1,0 0.3,-0.1 0.4,-0.1 3.9,-1.2 8.5,-9 14,-11.6 8.2,-3.9 9.6,1.2 16.5,1.2 6.2,0 13.1,0 19.3,-0.9 2.4,-0.3 5.2,-1.2 7.6,-1.2 0.5,0 2,0.4 2.5,0.6 2.5,1.1 4.4,6.2 6,6.9 1.2,0.1 16.5,-0.7 17.1,-0.9 1.1,-0.8 1.7,-2 2.8,-2.8 5.5,-1.3 11.1,10.5 19.8,6.5 3.7,-1.7 6.3,-12.2 6.4,-16.1 0.1,-4.6 -0.7,-9.2 -0.4,-13.9 0.4,-5.6 1.4,-11.1 1.9,-16.7 0.4,-5 0.3,-10.2 0.5,-15.3 0.7,-10 -0.2,-18.8 1.3,-29.2 0.2,-1.7 -0.2,-3.7 0.3,-5.3 1.6,-5.4 8,-9.1 6.9,-14.9 -0.5,-3.9 0.1,-6.6 2.1,-10 2.8,-4.6 7.2,-8 10.4,-12.2 1.8,-2.3 4.1,-5.3 5.2,-8 0.5,-1.4 0.8,-2.7 1.6,-4 2.8,-4.6 7,-8.1 9.7,-12.9 1,-1.8 7,-18.5 7.5,-20.7 0.8,-4.1 1.4,-8.3 2.7,-12.7 -0.4,-3.3 2.9,-7 2.6,-9.1 -0.3,-0.6 -1.3,-1.8 -1.5,-2.2 -0.6,-1.8 -3,-33.1 -2.9,-36.5 0.1,-4 1.1,-10.3 0.3,-14 -1.2,-5.5 -6.8,-3.6 -6,-13.7 0.3,-3.6 1.7,-5.3 2.9,-8.4 0.9,-2.5 0.1,-5.7 1,-8.3 0.8,-2.2 2.9,-3.5 3.9,-5.6 3.8,-7.9 3.3,-16.8 1.5,-25.1 -0.4,-1.9 -1,-7.9 -1.8,-9 l -8.4,-0.4 -5.8,-2.7 -2.2,1.1 -8.7,-3.6 -6.3,-1 -3.5,-1.3 -6.3,-6.1 1.3,-7.4 -1.9,-7.7 0.4,-0.9 3.3,-3.9 -0.2,-1.2 -0.1,-0.7 v 0 l -0.7,0.4 -5.7,3.4 h -0.2 l -2,-0.3 -15.7,-2.3 -4.2,-1.8 -1.5,-1.5 -0.2,-1.5 -2.9,-0.4 -2.7,-0.4 -1.1,-2.1 -2.5,-1.6 -8.6,-2.7 -7.3,-7.1 -7.6,-5.1 -5.2,-19.2 v -6.3 l -3.1,-4.4 -1.9,-2.7 -0.2,-0.2 1.8,-6.8 -0.4,-4.5 1.3,-4.1 -11.7,-8 -2,-0.2 -0.9,2.2 -0.2,0.5 0.1,0.9 2.5,1.5 v 1.4 l -7.1,-0.2 -1.9,-1.9 3.7,-3.4 v -0.4 -0.2 -2.7 l -4.2,-1.5 -1.6,0.9 -4.1,2.2 -7,-2.8 -9.5,-1.8 z m -228,4 -5.5,0.5 -1.3,1 1.2,3.1 v 2.7 l 1.7,1.1 1.2,-2.7 1.4,-0.4 1.6,-2.1 1.1,0.6 0.5,-1.2 z m -168,3.8 -5.8,0.6 -12,3.7 -36.7,11.2 -6,1.9 -24.6,6.8 -6.3,1.3 -2.6,0.5 -0.9,0.2 -9,1.1 -6.2,0.8 -1.9,-0.3 -2.9,-0.5 -1.7,1 -1.4,0.9 1.2,0.1 2.7,0.3 -1.2,0.6 -2.6,1.3 -3.3,4.4 -11,9.6 -0.6,3.2 2.5,7.2 3.1,2.1 3.8,0.6 3,-1 4.1,-2.8 v -1.5 l 1.1,-1.1 0.6,-0.2 1.3,-0.5 0.6,-0.2 3.1,-4.3 5.4,-0.2 0.3,-0.3 3.1,-3 4.4,-1.8 6.3,-0.1 2.4,1 3.1,-1 2.2,-2 3.5,-0.7 2.9,0.8 0.2,0.1 7.1,-4.8 0.6,-0.4 0.8,-0.5 3.6,-2.4 9.4,-5 23.6,-0.9 1.5,-1.6 -6.1,-5.3 v -1 l 1.7,0.1 3.1,2.4 3.5,0.2 -1.7,-4.2 1.7,0.2 2.1,1.7 2.7,-0.6 2.3,-1.7 2.9,-0.6 3.8,-2.6 0.5,0.2 2.3,0.7 1.6,-0.8 2,-1 4.2,-2.2 0.4,-0.2 1.6,-2.6 2.9,-0.2 1.4,-0.7 3.7,-1.9 -0.1,-0.2 -0.6,-1.2 z m -161.2,78 -2.9,0.4 -8.4,3.7 -11.9,6.5 -0.6,0.4 -4.4,3.1 -8.2,5.7 -1.2,0.8 -3.5,4 -3.2,3.6 -6.5,6 -6.2,4.2 -6.8,1.9 -6.6,4.3 -1.7,1.5 1.6,2.8 1.2,-1 3.6,1.5 5,-0.5 1,-0.1 h 0.3 l 0.8,-0.1 3.5,1.5 5.2,-0.4 8.2,-10.7 6.3,-2.2 6.9,-5.5 0.6,-1.2 -0.7,-1 -1.9,-0.2 -1.7,-2.7 -0.8,-1.3 -0.5,-0.9 0.3,-0.4 0.8,-1.2 8.7,-3.8 3.7,-1.6 8.4,-2.7 0.8,-0.2 5.7,-3.7 4.1,-4.1 h 0.7 l 8.8,-0.2 0.2,-0.3 1.4,-1.9 -0.7,-2.1 z M 825,467.1 v 0 0 l -7.8,7.5 -0.3,0.4 -6.3,9.4 -3,4.5 -11.2,16.7 -0.9,1.4 -4.1,6.1 -0.1,0.2 -1,1.5 -2,5.3 -2.8,3.7 -1.8,4 -1.6,3.7 -5.1,22.9 v 4.5 l 1.8,5.2 1.6,2.7 1,1.6 0.3,0.5 0.3,0.5 0.6,0.5 2,1.6 8.7,-2.4 2.1,-0.9 0.8,-1.5 3.4,0.2 2.1,-0.9 0.9,-3.1 1.1,-0.8 1.4,0.7 0.3,-0.6 1.9,-3.9 7.5,-9.7 7,-2 4.4,-3.8 6.5,-7.8 2.3,-8 6.4,-5.5 v -9.1 l 0.3,-1.8 v -0.2 l 0.7,-4.1 0.1,-0.9 -0.1,-0.8 -0.7,-4.4 1.6,-6.1 0.5,-1.8 -4.3,-9.6 -1.3,-0.7 -3,-1.7 -1.7,-3.5 -0.4,-0.8 -0.6,-3.3 -5.6,-5.6 z m 265,306.7 -2.2,3 -1.5,1 -1.8,0.4 -4.7,2.5 -5.3,1.6 -6.2,0.4 -3.9,0.7 -5.7,4 -3.6,3.8 -1.5,1 -7.3,7.8 -2.9,1.9 -5.9,0.9 -4.8,1.5 -1,1.6 -1.6,3.7 -2,3.1 -1.4,1 -1,1.5 -0.8,2.2 v 3.9 l -0.6,2.2 -0.8,1.8 -4.1,3.4 -3.1,1.6 -4.3,3.1 -1.7,0.7 -3.9,0.6 -3.2,1.5 -2.7,2.4 -9.9,7.1 -6.4,3.2 -12.2,7.1 -2.8,2.1 -3,1.6 -11.4,8.3 -13.8,7.7 -1.8,0.4 -4.2,3.1 -1.2,1.3 -1.8,3.4 -2.4,2.7 -10.3,6.1 -0.7,1.3 0.7,1.6 1.1,1.3 0.5,1.9 0.2,1.9 -0.4,2.4 -0.2,4.4 0.2,2.1 1.3,3.3 2,2.8 1.4,1.2 1.6,1 1.7,0.4 3.9,-0.6 3.2,-1.6 1.8,-0.4 6.4,-0.3 7.9,3 4.3,1 10,3.5 9,4.3 8.3,4.6 9,8 2.3,2.7 1.7,0.9 9.2,8.3 2.3,2.7 3.8,1.5 h 4.2 l 8.8,-3 20.6,-4.4 4.2,-1.8 1.5,-1 1.6,-3.7 1.2,-4.3 5.7,-12.7 -0.2,-1.9 -4.5,-9.6 -0.2,-1.9 0.4,-2.4 6.3,-6.2 2.7,-2.4 1.6,-0.7 7,0.6 4.3,-0.7 1.1,-0.6 3.1,-4.7 4.8,-4.7 18.3,-10.3 9,-2.7 11.1,0.3 3.2,-1.5 7.6,-4.4 2.9,-2.1 1,-1.6 2.4,-5.5 5.3,-7 3.2,-5 3.1,-6.4 2.3,-3.8 2.7,-5.3 2.4,-15.8 -0.5,-6.8 -1.9,-4.9 -2.1,-2.8 -1.2,-1.7 -2.1,-4.5 -0.9,-1.1 -0.2,-0.2 -0.2,-0.3 -1.4,-2.2 -1.4,-1.2 -6.6,-1.3 -6.8,-0.3 -4,-0.7 -2.5,-0.5 -2.4,-2.7 -1.6,-0.9 -11.6,-1.6 -6.8,-1.5 -1.9,-0.9 -2.5,-0.3 -4.1,-1.3 -3.8,-1.6 z m -179.6,72.5 v 0 l -1.1,0.3 -0.8,4.8 -2.1,2.5 v 1.5 l 1.4,0.8 4.5,-2.2 6,-3 2.2,-0.4 0.5,-0.9 -0.6,-1 -6.6,0.5 -2,-1.6 z m -390.7,361.8 -2.2,2.1 -2.2,3.9 -3.7,3.1 1.3,0.9 5.8,-2.4 6.7,-0.8 5.5,2.1 0.3,-1 -5.7,-3.8 -4.1,-3.9 z m -23.9,12.4 -5.9,2.9 -6.5,1.6 0.4,2.2 v 0.2 l -2.1,7 -9,-1.8 -6.2,0.4 -0.8,0.3 -0.6,0.2 -0.2,0.1 -5.5,2 -12.1,3.1 -5.5,2.7 -2.5,3.3 -3.4,6.7 -0.7,3.2 0.5,5.3 0.9,2.8 0.4,1.3 3,3.7 1,1.3 6.5,3.9 2.3,-0.2 0.9,-0.1 9.2,-1 1.9,-0.9 0.4,-1.7 1.4,-1.2 0.4,-0.3 0.4,-0.4 v 0 l 3.4,-1.3 h 2.2 l 2.2,-2.1 0.9,-0.9 4.6,-4.3 4,1.5 0.9,1.2 v 1.6 2.8 l 1,0.7 1.4,1 1.4,0.4 6.3,1.9 0.8,0.2 2.9,-0.5 4.2,3 2.3,5.9 2.6,3.1 v 3.7 l 1.3,5.2 1,0.6 3.3,2.2 4,0.6 1.5,0.2 1.3,-1.9 2,2.1 2.3,-3.4 0.2,0.6 2.2,4.1 3.5,3.1 5.1,4.5 10.6,-3.5 6.8,-2.2 6,-3.6 2.2,-0.5 2.8,0.9 1.5,0.5 6.8,-7.6 4.2,-2 1.6,-2 v -1.2 l 1.4,-2.1 0.2,-3.8 1.5,-3 -3.1,-0.6 -7.5,-1.3 -1.8,-2.3 -8.4,-4.2 -7.6,-0.8 -1.8,-0.9 v 0 l -0.4,-0.2 -3,-7.8 -2.6,-4.6 -1.8,-0.9 -1.3,-1.9 -1.9,-4.8 -3.4,-4.3 -13.7,0.9 -2.5,-0.6 -4.5,1 -6.2,-4.9 -3.8,-1.2 -12.9,3.4 -1.1,-0.9 -3,-0.5 -0.5,-3.9 0.7,-3.1 1.3,-2 0.5,-0.8 3.6,-0.5 7.8,3.3 0.2,0.1 v 0 l 0.8,-2.1 -0.9,-1.6 -3.1,-1.1 -0.7,-0.2 0.2,-0.4 v -0.1 z m 40.9,4.6 -0.3,2.2 3.1,4.5 2.1,3 3.2,6.6 2.5,0.1 0.7,-1.6 -1,-2.6 -2.5,-2.5 -1.5,-3.6 -0.6,-5.3 -0.9,-0.7 z m 96.4,1.7 -2.1,0.4 -0.3,1.6 2.5,2.6 6.8,5.5 8.5,4.4 0.6,0.8 4.6,-0.5 5.4,-2.1 0.7,-0.5 -0.1,-1.6 z m -102.6,3 v 0 l -7.5,0.3 -2,1.1 -0.1,0.3 -0.3,0.7 0.5,0.7 0.9,1.2 5.2,-1.2 3.2,-1.6 z m -15.4,3.4 -2.1,0.5 -0.4,1 -0.1,0.2 0.9,1.3 v 0 l 1.7,0.2 4.5,-0.4 z m 142.2,10.2 v 0 l -1.6,0.7 -1.4,2.1 2,0.8 5,0.1 0.1,-0.9 z m -206.7,35.4 -0.9,0.4 -0.8,0.4 -0.4,1.5 1.6,1 2.4,-1.8 z m -4.4,6.9 z m 0,0 -8.4,9.5 -1.5,2.7 0.6,2.1 2.2,-2.1 -0.8,-1.6 2.7,-1.3 1.7,-2.4 2.8,0.1 3,-3.5 0.9,-1.9 -1.8,-1.3 z m 42.1,20.2 v 0 l -5.1,1.2 -2.5,-0.6 -11,3 -0.9,0.3 -4,-0.3 -4.7,0.8 -2,1.8 -1.7,-0.8 -5.5,1.6 h -2.4 l -1.8,-2.1 -4.1,-1.8 -4.5,0.9 -5.3,0.7 -4.3,1.8 c 0.1,-0.3 -2.9,2.5 -2.9,3.4 0,0.9 1.1,4.8 1.4,6.2 0.2,1.4 2.1,2.3 3.4,3.4 1.4,1.1 3.7,2.1 4.8,3.2 1.2,1.1 5,3.9 6.2,5.3 1.2,1.4 2.1,3.4 2.3,5 0.2,1.6 -0.5,4.1 -0.5,5.7 0,1.6 1.4,1.8 2.3,1.8 0.9,0 1.2,-2.7 1.6,-3.7 0.5,-0.9 2.7,-2.7 2.7,-2.7 l 4.6,-3 c 0,0 2.1,-2.1 3.4,-2.7 1.4,-0.7 4.1,-2.5 5.7,-3 1.6,-0.5 3,0 4.8,0.7 1.8,0.7 3.4,1.4 5.3,2.1 1.8,0.7 3.2,1.1 4.4,0.9 1.2,-0.2 2.7,-3 5,-3.4 2.3,-0.5 3.2,0 5,0.2 1.8,0.2 1.8,1.6 3,3 1.2,1.4 3,2.7 4.4,2.7 1.4,0 3.4,-1.3 3.4,-1.3 l 2.8,-4.3 7.1,-1.9 0.4,-0.9 0.5,-1.2 -0.3,-0.6 -1.4,-2.6 -1.7,-3.1 -2.5,-1.4 -3.6,-7.3 -1.6,-2.1 -0.2,-0.2 -3.4,-2.3 z m 362,76.4 18.7,2.4 -9.6,13.5 -11.9,-2.8 z m -467.1,27.3 v 0 l -4.1,0.6 -12.2,6.6 -9.5,2.9 -5.8,-0.6 -16.3,6.3 -3.2,3.9 c -1.4,10.4 10.3,14.7 -2.7,28.7 l -0.2,1.9 c 0.3,1.7 2.5,2.8 3.9,3.4 l 0.8,1.6 c 0.2,2 -1.4,3.5 -1.8,5.3 0.7,2.3 2.7,3.8 3,6.4 0.2,1.9 -0.4,4.2 0.5,6.1 1.4,3 6.3,4.4 8.8,6.3 3.2,2.5 5.7,6 9,8.3 6.1,4.2 15.3,1.4 21.9,0.3 2.3,-0.4 4.7,-0.8 6.9,-1.3 l 1.1,-1.3 c 0.3,-5.2 -1.7,-15.7 -1,-18.8 l 1.2,-1.3 4.8,0.6 c 5.3,-1.8 4.5,-5.8 12.4,-3 1.2,-0.3 2.3,-0.7 3.3,-1.3 0.9,-1.6 1.8,-3.3 3.1,-4.6 5.4,-2.8 14.3,8.8 24.5,5.9 4.6,1.1 6.4,7.1 10.3,9 4.6,2.2 10.7,0.5 15.6,2.2 3.2,1.1 4.4,3.9 8.2,4.6 1.2,-0.4 2.4,-0.8 3.6,-1.1 1.6,0.5 3.7,1.4 4.5,3 -0.6,5.7 -3.6,15.6 -0.1,20.8 4.5,3.2 15,5 20.4,4.4 3.2,-0.3 6.4,-2.3 9.6,-1.9 0.7,0.8 0.6,2.9 0.3,3.9 l 1,1.3 c 8.3,1.9 11.2,-9.9 16.7,-4.1 7.6,0.9 18.9,-13.8 25.4,-17.7 4.3,-2.6 10.1,0.1 15,-2.8 4.9,-2.9 9.4,-6.6 14.3,-9.6 16,-9.7 26,-18.3 37.4,-33.4 2.3,-3 5.4,-6.6 7,-10.1 l -4,-3.7 -3,-6.4 -1.2,-2.5 -1.7,-1.2 -5.9,-1.3 -0.8,0.9 -0.1,2.8 0.7,1.2 -1.2,0.8 -2,-2.1 v 2.4 l 1.4,2.6 -1.2,1.1 -2,-2.4 -0.5,-3.4 -1,-0.8 -2.4,0.2 -1.9,1.2 -0.7,1.6 0.7,2.5 3.1,2.1 6,0.7 4.7,0.5 -0.1,1.6 -7.7,-0.5 0.3,0.9 2.9,1.5 0.8,2.6 -1.2,0.3 -2.8,-2.9 -2,0.8 0.9,2.4 -1.5,0.4 -3.2,-4.7 -0.8,0.8 1.4,3.3 -3.9,-5.3 -1.6,-1.2 -3,0.7 -0.9,1.5 2.8,4.6 3.4,2.9 -0.1,0.4 -0.2,0.6 -1.4,0.2 -6.1,-5.3 -1.7,-2.7 -3,-2.7 -4.7,-1.2 -2.8,-3.5 -3.1,-1.2 -7.8,-0.6 -3.5,-1.9 -1.5,-3.2 -3.9,-8.3 -2.4,-3.2 -2.5,-1.9 -3,-1.5 -4,-0.2 -7,-0.4 -1.8,3.2 -0.8,1.4 -0.4,5.7 -3.6,9.8 -3.7,0.8 -1.7,1.1 -5.1,0.7 -3.2,0.4 -4.9,4.6 -6.3,3.5 -3.5,4.7 -3,0.4 h -1.7 -2.9 l -6.2,-2.5 -2.9,-1.2 -1.2,0.8 -12.8,-3.5 h -0.1 l -1.4,2.4 -0.9,1.7 -0.4,0.8 -0.7,-0.4 -0.1,-0.1 -6.1,-3.1 -5.7,-1 -3.3,-1.3 -1.1,-0.4 -11.2,-10 -2.8,-1 -6.6,-0.1 -6.8,-1.8 -9.8,-4.7 -4,-0.8 -6.2,-3.6 -1.9,-1.6 -1.6,-1.4 -4,-1.3 -8.6,-2.7 z m 199.7,22.9 -0.8,1.8 0.7,1.8 1.6,1 5.1,-0.9 -0.3,-2.3 z" />
		</defs>
		<clipPath
   id="SVGID_81_">
			<use
   xlink:href="#SVGID_10_"
   style="overflow:visible"
   id="use1173" />
		</clipPath>
		<g
   class="st8"
   clip-path="url(#SVGID_81_)"
   id="g1318"
   style="display:inline">
			<g
   id="layer4_1_"
   style="display:inline">
				<path
   id="path3834-9_1_"
   class="st9"
   d="m 204,215.4 c 185.40474,233.89146 82.75796,518.99838 48.90963,770.40826 94.9396,236.30894 62.10484,470.76784 -4.01132,700.60154 131.24564,177.1541 439.70784,142.7547 647.40143,90.8681 227.31876,-86.0987 458.02416,148.9391 683.58536,24.7271 261.1097,-32.3437 265.5744,-380.374 247.7597,-581.4846 -139.274,-259.59629 53.2588,-486.08759 28.2916,-742.38953 C 1873.6389,241.75302 1656.6728,181.82646 1488.2067,294.84026 1269.6776,337.93988 1068.205,134.79134 855.35746,260.35727 627.17254,390.91999 435.00579,187.06062 204,215.4 Z" />
				
				
				
				
				
				
			</g>
			
		</g>
		
	</g><g
   id="g1335"
   transform="translate(103.50996,1.002357e-5)"
   style="display:inline">
		<defs
   id="defs1324">
			<path
   id="SVGID_2_"
   d="m 1356.5,269.4 -2.4,0.3 -1.1,1.3 -1.1,4.3 0.7,1.8 1.6,-0.2 2.4,-2.1 7.7,2.4 3.6,2.1 3.3,-0.4 1.3,-1.8 1.8,2.3 1.1,-1.5 -0.9,-1.7 -3.8,-2.3 -9.7,-2.4 z m 52.5,2 -8.1,0.1 -3,1.2 -1.9,2.8 4.7,3.2 4,0.5 -1.7,-2.5 3.6,-3.4 4.4,-0.5 z m -99.9,20.8 -7.4,0.4 -1.3,0.1 -41.4,5.8 -4.2,2.5 -3.8,4.3 -2.9,5.8 -0.2,3.3 0.8,2.1 2.1,-2.2 0.1,0.3 0.4,1.5 -1.8,2.7 -0.5,2.9 0.6,1.3 1.3,-0.3 4,-3.6 0.1,-2.3 3,-1.4 2.1,-2.3 5.2,-1.4 6.9,-0.2 15.3,-1.2 6.8,-3.2 3.9,-4.3 9.1,-1.5 3.3,-2.3 3.4,-0.5 4.7,-3.3 -1.5,-1.8 z m -119.9,21.7 -8.6,0.2 -12.4,1.4 -18.5,2 h -0.2 l -35.2,2.3 h -0.7 l -10.5,-0.5 -5.7,-1.3 -9,-3.3 -3.9,-0.2 -3.1,2.1 -1.9,1.4 -0.5,1.6 0.2,0.1 1.6,1.4 -0.3,0.4 -1.7,2.5 0.3,2.8 0.1,0.8 2.6,4.5 0.4,0.2 6.7,3.8 2.3,0.2 4.9,0.5 8.1,-0.7 5.3,-2.1 5.4,-6 1.8,-0.8 0.3,-0.2 0.5,0.1 6.9,1.7 2.9,-0.5 8.8,2.1 2.3,-0.4 4.2,0.8 5.6,-2.5 7.9,-1.1 13.7,-3.1 8.2,-3.6 h 0.2 l 13.9,0.8 5.7,-3.8 -2.7,-1.5 -1.9,-1.1 z m 265.6,0.7 -9,0.5 -18.2,4.6 -7.5,3.2 -3.6,2.3 -7.2,2.5 -4.6,3.1 -10.3,1.7 -5.8,2.7 -15.5,2.2 -6.2,-0.8 -8,1.1 -1.4,0.4 -6.6,1.7 -15.5,2 -2.3,1.2 -15.5,6.1 -7.7,5 -4.1,-4.7 -5.6,-3.9 -11.7,-4.3 -2.7,1.2 -1.1,0.5 -1.2,0.3 -0.8,0.2 -9.6,2.6 -0.3,-0.3 -1.8,-2 -1,1.6 1.2,0.9 3.2,1.8 c 0,0 2.1,1.3 2.4,1.9 0.2,0.6 2,1.1 2.5,1.4 0.5,0.4 3.3,1.2 3.8,1.3 0.5,0.1 1.3,1.7 1.1,2.5 -0.2,0.8 -1.5,1.2 -2.2,1.4 -0.8,0.2 -2.1,0.3 -2.9,0 -1.6,-0.5 -3.4,-2.1 -4.5,-3.3 -0.9,-1 -2.4,-4 -2.4,-4 l -1.3,-0.8 h -2.9 c 0,0 -1.3,1.4 -1.5,2.1 -0.3,0.8 -0.6,2 -0.1,2.7 0.5,0.8 2.1,0.7 2.8,1.2 0.9,0.6 2,1.6 2.6,2.5 0.4,0.6 1.2,1.6 0.8,2.1 -0.5,0.7 -1.9,-0.2 -2.7,0 -0.8,0.2 -2.3,0.4 -2.5,1.2 -0.1,0.7 0.9,1.3 1.5,1.7 1.1,0.6 3.3,0.7 4,0.9 0.7,0.2 2.3,0.7 2.8,1.5 0.5,0.8 0.1,2.2 0.5,3.1 0.4,0.7 1.1,1.8 1.9,2 1.4,0.4 3.5,-0.3 4.7,-1.1 0.9,-0.6 1.1,-2.7 2.1,-3.1 0.4,-0.1 0.9,0.1 1.2,0.4 0.5,0.6 0.9,1.7 0.7,2.5 -0.2,0.6 -1.1,0.8 -1.5,1.2 -0.9,0.6 -3.1,0.8 -3.1,1.9 0.1,0.8 1.8,1 2.6,1.1 0.7,0.1 1.6,-0.3 2.2,-0.5 0.7,-0.2 1.8,-1 2.5,-0.6 0.4,0.3 0.5,1.1 0.4,1.5 -0.3,1 -1.5,2 -2.5,2.5 -1.1,0.6 -3.5,-0.1 -4.2,0.9 -0.3,0.4 -0.1,1.2 0.1,1.7 0.4,0.9 1.9,1.5 2.2,2.4 0.1,0.2 0.1,0.6 0,0.8 -0.2,0.3 -0.6,0.4 -0.9,0.5 -1,0.1 -2.5,-0.3 -3.3,-0.9 -0.7,-0.5 -1.1,-1.7 -1.6,-2.4 -0.4,-0.5 -0.8,-1.2 -1.2,-1.6 -0.6,-0.6 -1.4,-1.6 -2.2,-1.8 -0.7,-0.1 -1.7,0.3 -2.1,0.8 -0.8,1.1 -0.2,3.7 -0.2,4.4 0,0.7 -0.6,1.4 -1.3,0.9 -0.7,-0.5 -0.6,-2.9 -1.1,-4 -0.3,-0.7 -0.7,-1.7 -1.3,-2.2 -0.9,-0.8 -3.2,-1.4 -3.8,-1.3 -0.6,0.1 -1.3,1.3 -1.4,2 -0.2,1.3 0.5,3.4 1.1,4.1 0.6,0.7 2.9,3.3 3.7,4.4 0.7,1.1 0.3,1.2 -0.1,1.4 -0.8,0.4 -2.2,-0.8 -2.7,-1.3 -0.5,-0.5 -1.9,-2.4 -3.1,-3.9 -1.2,-1.5 -1.2,-2.6 -1.2,-4.1 0,-1.5 0.1,-2.2 0,-3.2 -0.1,-1 -0.2,-2.7 -0.6,-3.3 -0.4,-0.6 -1.4,-3.2 -1.4,-4.2 0,-1.1 0,-2.1 0.1,-3.3 0.1,-1.2 -0.1,-2.7 -0.7,-3.7 -0.6,-0.9 -0.9,-0.4 -1.2,-1.3 -0.2,-0.9 -0.1,-4.2 0.1,-5.4 0.2,-1.2 1,-6.2 1,-6.2 l -6.1,2.6 -0.4,-0.1 -15.2,-3 -2,1.8 -5.3,-0.6 -7.8,1.4 h -5.5 l -9.3,2.8 -6.6,0.8 -6.9,2.1 -13.4,5.8 -10.4,-0.6 -3.8,1.5 -6.9,4.3 -10.5,3.3 -2.9,2.4 -8.4,3.5 -2.5,1.8 -7.6,2.4 -10.1,6.1 -12.9,7.8 -3.7,0.6 -2.6,2.1 -4.5,-0.3 -16.5,3.7 -5.5,3.4 -9.6,7.3 -2.7,4.3 -0.5,2.7 -10.2,10.7 -0.2,0.3 -2.2,1 v 0 l -4,1.9 -0.5,0.4 -2.2,1.6 -0.5,0.4 -9.5,7.3 -8.8,8.3 -4.2,7 -3.6,10.2 1.9,4.5 -3.3,0.5 -1.1,2.1 0.5,8.1 -2.2,14.3 -3,6 -5.2,6.2 -1.4,4.4 0.6,4.7 0.6,4.6 3.8,9.4 1.8,4.3 -0.5,1.2 -5,-2 0.9,-2.7 -1.9,-4.6 -4.9,-1.7 -0.5,1.8 3.1,5.5 3.2,1.7 -1,3 2.1,5.3 2.4,1.7 3.1,-2.1 0.6,5 -2.6,3.1 2.2,2.4 0.7,6.3 -1.2,9.7 4,13.8 -0.2,4.1 -1.2,1.1 0.8,3.6 -0.7,2.6 -3.1,1.5 -0.6,1.1 2.9,6 0.5,8.9 -1.2,2.3 -2.6,1.9 h -2.6 l -3.7,1.8 -4.8,5.1 -1.3,3.7 4.1,9.6 2.5,0.9 2,1.7 6.5,5.6 7.1,2.8 7.5,-3.5 3.9,0.3 3,0.2 25.4,11 4.1,0.4 7.7,-1.7 3.3,-6.5 4.7,-1.7 3.8,0.3 5.6,-1.7 3.1,-3.3 2.1,0.2 3.1,4 1.2,5.3 4.6,-0.9 7,-0.2 4.9,1.8 0.8,0.3 0.4,0.1 0.3,0.9 0.3,0.9 -0.1,0.1 -1,0.7 -7.4,0.6 -3.5,1.4 -4.6,0.6 -20.6,30 -0.7,1.1 -1.3,6.4 -1.4,6.9 0.6,6.1 -0.1,4.3 -0.4,24.5 -0.3,4.3 -0.2,2.2 -1.2,2.1 1.8,1.8 0.6,0.1 1.1,0.1 0.6,0.9 1,1.6 1.1,0.1 4.9,6.9 2.8,2.4 3,4.6 3,4.6 0.1,0.1 0.2,0.3 2.9,4.4 0.1,0.2 -0.5,0.3 1.5,2 4.7,0.6 26.6,0.3 10.4,-0.6 17.7,0.3 3.8,-0.6 0.1,0.8 -0.1,1.5 -1.5,6.9 -0.7,1.9 0.6,1.9 1.5,1.2 1.8,0.4 3.7,-1.9 -4.2,3 -4.2,0.4 -9,-0.6 -1.1,0.7 5.2,2.8 2.2,0.4 3.1,1.9 0.9,1.6 0.3,1.9 5.2,6.9 1,3.5 1,9.7 1.8,7.4 -1.5,4 -1,1.5 -1.7,3.8 -1.6,6.5 -1.7,3.8 -1.1,4.1 -0.8,1.8 -2.1,3 -1.4,1.2 -1.8,2.7 -1.7,3.7 -3.2,4.8 -1.6,1.8 -0.6,1 -0.9,0.6 -3.2,2.6 -0.9,1.1 -1.6,1.2 -3.1,3.2 -3.2,3 -2.5,1.8 -2.1,0.9 -1.3,1.2 -4.4,2.7 -2.9,1.3 -0.7,0.3 -3.4,0.9 -6.5,2.9 -3.9,2.3 -1.2,0.6 -1.2,0.4 -2.8,2.2 -1.7,0.6 -4.3,3 -2.9,2.2 -4.5,2.4 -1.9,0.4 -1.6,1.2 -1.9,2.8 -1.5,4 -3.9,3.5 -1.5,0.6 -4.4,3.1 -2.4,2.7 -2.6,5.2 -2.5,8.3 -3.1,7.5 -3,4.9 -3.5,3.7 -3.2,1.6 -4.1,0.4 -4.4,-0.4 -6.8,2.7 h -2.1 l -5.3,1.8 -1.4,1 -6.8,2.5 -2,0.3 -2.3,-0.3 -3.3,-1.5 -5.9,-4.4 -2,-2.5 -2.9,-2.2 -3.8,-1 -5,-0.7 -3.7,-1.6 -2.4,-0.1 -3.9,-1.6 -1.9,-2.8 -1.6,-3.2 -1.1,-1.2 -0.7,-1.8 -1.3,-1 -3.1,-2.1 -6.2,-2.1 -5.4,-2.7 -1.8,-0.7 -4.2,-0.3 -4,0.6 -1.5,0.7 -9.4,2.1 -6.4,-0.3 -3.9,-1.6 -3,-2.1 -4.3,-5.5 -4.1,-3.4 -6,-2.2 -1.7,-0.9 -1.2,-1.2 -3.6,-1.8 -2.1,-0.6 -3.2,1.3 -3.2,-0.7 -0.2,-0.1 -0.6,0.1 -5.3,0.9 -1.5,0.3 -1.9,0.3 -0.1,-2.1 v -0.2 l 2.1,-1.7 -2.3,-2.6 -1.7,-0.3 -2.2,0.7 -2.6,0.9 -2.1,-0.2 -2.9,-1.9 -1.1,-1.8 -0.5,-0.9 v -0.4 l 0.1,-0.4 0.3,-2 -0.6,-1 -1,0.2 -2.6,0.5 h -0.2 l -1.1,0.2 -3.8,-2.2 -1.1,-0.6 1.6,-1.7 3.9,-0.3 2,-2.5 2.5,-1 1.5,-0.6 0.6,-0.2 1.8,1.2 2.2,1.4 0.5,-0.7 0.9,-1.3 0.4,-2.6 1.6,-0.9 0.8,-0.5 3.4,-7 2.5,-0.8 5.4,-6.8 2.6,-0.4 3.8,-5.3 1.4,-4.4 2,-1.7 1.9,-1.6 0.7,-0.6 -2.7,-1.5 -8.9,-1.1 -1.3,-0.2 -1.1,-6.7 0.5,-2.6 0.2,-0.8 -3.1,0.4 h -0.2 l -0.6,0.1 h -0.1 -0.2 v 0 0 l -0.6,-1.6 -0.1,-0.2 v 0 0 l 7.9,-1.2 0.5,-0.2 1.3,-0.4 1.3,-1.6 -2.5,-4.9 0.3,-4.5 2.9,-1.8 0.7,-0.5 1.4,-1.9 1.3,-2.4 0.3,-0.6 0.2,-2.4 -1.6,-4.3 -2.6,-3 -4,-7.2 -0.7,-4.7 -1.3,-2 -1.6,-5.5 -0.3,-0.9 -0.2,-0.6 -1.2,-1.8 -0.3,-0.5 -0.1,-0.1 -0.6,-0.4 -2.2,-1.8 0.9,-3 v -0.1 -0.1 l -5,-10.5 0.4,-2.6 -0.9,-1.9 0.6,-2.2 -1.6,-8.2 0.8,-2.8 0.2,-0.2 v 0 l 1.5,-1.9 1.9,-0.8 3.7,-1.5 1.9,-0.8 5,1.5 0.9,0.3 5.3,-2.7 h 0.3 l 2.3,-0.1 0.8,1.7 0.8,0.4 1.3,0.6 0.2,0.1 0.9,0.4 3.8,0.6 1.5,0.2 1.3,1.2 1.4,1.3 0.6,3.8 1.8,0.6 9.2,-2.6 4.5,-4.3 1,-0.9 h 2.3 3.2 l 13.7,-10.6 2.3,-4.2 v -0.9 l -0.2,-2.5 0.5,-1.4 1.8,-5.5 0.6,-1.7 6.5,-0.6 0.7,1.6 0.9,2.3 1.2,1.1 4.5,-5.7 v -0.3 -0.9 -0.2 l -1.9,-0.3 -0.7,-2.3 3.7,-2.6 0.1,-0.3 1.3,-2.5 v -1 -0.7 l -1.8,-2 -0.7,-0.8 -1.5,-4.6 0.3,-8.2 v -0.3 l -1.7,-3.5 -0.2,-0.1 -2.1,-0.8 -0.6,-1.8 V 697 l -0.5,-1.5 -3.9,-1 -14.6,-0.7 -5.1,-0.3 h -0.6 -0.1 l -2.1,0.8 -5.2,6.2 -2.7,2.1 -5.9,0.2 -2,-1.6 -2.4,-4.8 -3.4,-2.4 -1.2,-2.5 0.2,-2.6 -0.9,-2.2 -2,-1.7 -3.1,-2.7 -0.3,-1.8 4.1,-30.6 v -0.1 l -0.2,-3.9 -1.3,-2.4 -8.1,-14.6 -2.4,-6.3 -0.9,-2.4 -1.9,-1.9 -1.3,-2.6 -4,-7.9 -1,-2 -2.4,-2 0.1,-0.2 1.4,-1.9 -0.1,-0.1 -1,-1.3 -1,-1.3 -1.1,-1.5 -1.6,1.4 -1.4,-0.6 -1.6,-0.7 -4.2,2.3 -4.7,-1.5 -1.9,0.7 -7.2,2.6 -1.8,0.6 -2.6,2 -2.6,5.4 -5.1,5.5 -0.6,0.6 -0.7,0.7 -10.5,4.5 -1.3,1.1 -0.4,0.4 -5.8,0.9 -1.8,0.3 h -0.2 l -7.7,-3 -2.1,-2.2 -0.1,-0.1 -6,-2.7 -4.4,-3.5 -5.9,-13.8 0.2,-2.9 2.7,-6.1 v -0.1 -0.1 l -0.1,-1.4 -0.2,-3.3 h -0.1 l -1.2,-0.4 -2,1.3 -1.7,1.2 -1.6,-0.1 -2.1,-1.1 0.3,-2.3 0.1,-0.7 0.1,-0.5 v 0 l -4.9,0.3 -6.6,0.4 -3.7,0.2 -2.1,1.6 -1.4,2.8 -1.4,2.7 -1.1,25.6 -0.8,8.5 -0.3,3.3 -2.3,11.3 -0.3,1.3 -3.5,12.6 -0.1,0.3 -6.4,23.2 -4,9 -0.8,1.2 -0.3,0.4 -1,1.3 -1.4,1.9 -3.3,20.1 -0.1,0.7 v 0 l -1.1,12 -0.4,4 -1.6,9.4 -0.1,0.4 -1.4,10.6 -0.5,13.3 -0.1,0.8 -0.9,5 v 0 l -0.8,4.1 -0.9,11.3 -0.6,7.2 -2.7,14.6 -1.7,9.4 -2,7.1 -6.5,23.3 -0.2,0.8 0.2,0.8 -1.1,8.3 -2.1,3.4 -0.5,2.7 -0.3,0.9 -7.1,22.3 -4.2,10.5 -2.6,6.5 -5,12.5 -5.2,10.7 -0.1,0.2 -17.8,36.6 -0.3,0.5 v 0.1 l -2.8,5.7 -1.4,3 -8.2,13.5 -0.9,1.6 v 0 l -1.1,1.9 -3.2,5.4 -0.1,0.1 -5.1,8.6 -10.8,15.4 -9.7,11.9 -5.6,5.1 -3.7,3.3 -0.5,0.4 -4.9,6.9 -3.2,3.7 -31.5,36.7 -2.9,4 -6.9,9.5 -11.2,7.1 v 0 l 9.5,4.3 8.6,11.1 -10.9,-4.8 -5.5,-2.6 -2.2,-1.3 0.4,2.2 -1.8,3.5 -0.2,2.1 -0.2,2.9 0.8,1.9 0.5,1.2 -0.2,0.7 -0.4,0.4 -0.9,-0.2 -0.2,0.9 -0.3,1.4 3.2,0.9 -0.5,0.9 -7.9,0.8 -6.5,2.5 -3.1,-0.4 -1.7,-3.9 1.2,-0.9 1.5,2.4 8.7,-2.5 1.3,-1.6 1.1,-2.2 -0.6,-2.8 -3.1,-1.7 -4.6,-1 4.3,0.4 2.7,-0.8 -0.5,-1.7 -2.9,-0.8 c 0,0 1,-0.7 1.1,-1.3 l -9.7,-1.3 -5.2,1.7 c -0.1,-0.2 -0.1,-3 -0.8,-2.9 -0.1,0 0.2,2.3 -0.7,3.3 -0.5,0.6 -0.2,1 -0.2,1.1 -0.2,0.6 -0.8,2.5 -0.9,2.4 0,0 -3,2.1 -3.6,2.7 0.8,-1.1 3.3,-4.8 3.3,-4.8 0.3,-0.2 0.3,-2.5 1.1,-2.2 0.3,0.1 0.3,-4.3 0,-4.3 -0.5,0 -1.4,-0.3 -2.3,0.7 -0.7,0.8 -1.5,2.8 -2,3.3 -1,0.9 -1.2,0.2 -1.3,0 -0.6,-1.4 3.6,-6.4 3.8,-6.8 l 0.8,-0.7 8.5,2.5 11.2,3.1 1.6,-0.3 0.5,-0.8 0.6,-1 -1.9,-1.9 -4.6,-2.1 -7.5,-3 -7.9,-0.2 -5.1,2.4 -3.1,2.7 -2.4,3.7 -1.1,7.2 1.1,6.4 2.5,7.4 2.2,-3 c -0.3,-1.1 0,-1.6 0,-1 l 0.1,0.7 9.5,0.3 1.6,4.3 -0.8,3 2.4,3.8 1.1,-0.3 0.5,-2.4 1.4,-1 4.5,4.1 -0.5,2.2 h -1.2 l -4.3,8.3 -1.5,1.4 -1,1 -0.8,2.1 0.6,2 7.7,8.9 3,5.2 1.4,4.7 -0.7,2 -3.2,2.4 -0.2,1.5 2.1,-0.2 5.4,-0.4 2.7,3.7 3.4,2.4 4.6,0.6 2.6,1.7 1.5,-1.4 1,2.8 2.1,0.4 2.8,0.7 4.1,-0.6 6.4,3.9 2.3,3.2 5.9,2.7 2.7,0.3 5.8,3.8 2.7,3 3.7,1.3 2.5,-1.4 0.4,1.5 -2,1.6 -3.4,0.5 0.1,1.4 5.7,6.6 6.7,2.6 10.9,4.4 9.1,2.2 4.2,2.4 h 1.4 l 2.8,2.6 4,1.3 9.9,6.4 1.8,1.2 0.3,0.2 4.2,1.6 5.9,0.5 4,0.9 9.7,0.3 10.8,4.8 4.3,3 12.4,-1.5 11.8,-4.7 4.8,-1.2 0.3,-0.1 5.7,-3.9 v 0 l 0.8,1.7 0.5,1.1 1.8,4 -3.2,0.5 -4.9,6.4 -4.1,2.3 0.2,0.6 0.4,1.3 -1.7,-0.3 -0.9,-1.2 -7.9,3.1 v 0 l -1.2,0.5 -1,0.1 -22.2,1.3 -5.6,-0.8 -2.4,-1 v 0 l -4.3,-1.7 -5,-2 -1.3,-1.5 -1.8,-0.3 -3.4,0.8 -3,2 -0.9,-0.6 -0.4,-1.9 3.9,-3.4 -1.8,-0.3 -2.1,2.4 -2,0.1 -1.3,1.1 -1.2,-0.6 -0.4,-6.2 v -0.2 l -0.8,-0.2 h -0.1 l -0.1,0.1 -2.5,2.6 -0.7,-1 -1.3,-1.7 v 0 l -1.4,-0.1 -1.9,1.5 -5.2,1.5 -5.6,0.2 -6.6,-2.2 -1.8,-1.4 -2.7,-2.1 -10.4,-3.2 -5.7,-6.1 -3.8,-5.8 -6.5,-4.5 -2.2,-3 -2.5,-1.1 -2.5,-3.5 -2.9,-5.3 -2.8,1.1 -11.2,-4.9 -8.2,-5.7 -2.5,-1 -2.9,-1.1 -3.1,-2.8 -10.7,-5.2 -4,-3.4 -2.2,-0.3 -1.8,1.3 -1.3,-2 1.7,-0.7 -1,-4.2 -2.4,1 -0.1,1.6 -1.2,0.3 -2.6,-2.8 -1.5,-1.6 -4.2,-3 0.9,-2.8 -2.1,0.1 -3.6,0.2 -3.7,0.2 -2.2,0.1 -10.3,3.6 -8.4,4.3 -0.6,0.3 -3.3,0.7 -7.3,1.5 -2,0.4 -4.8,3.1 -2.2,2.8 -1.1,3.2 0.9,5.1 3.1,6.3 -0.6,0.9 -0.6,0.9 -0.5,0.8 0.6,2.6 0.1,0.5 0.3,1.3 1.9,-1.3 0.3,-3.7 2.2,1.1 h 2.1 l 5.4,-5.7 v 0 h 0.3 l 1.5,-0.2 1.6,-2.4 10.1,-2 1.9,-1.6 5.6,-0.1 2.1,1.3 2.7,0.4 2.3,-0.5 3.9,0.6 0.6,1.2 0.1,0.2 1.9,4.2 3.6,4.1 1.3,4.5 v 4.7 l -1.2,5 1.1,3.8 1,0.9 2.9,-1.1 0.4,3.9 2.6,4.6 2.4,5.9 0.3,3.4 1,1.3 0.7,-0.3 0.4,-0.1 0.6,0.5 2.2,1.7 h 0.2 l 2.2,0.5 5.4,-0.6 2.1,0.8 3.6,-1.1 10,2.8 5.7,2.7 3.2,4.8 0.6,0.9 2.8,2.8 5.2,0.7 1.5,1.2 v 0 l 0.5,0.3 4.8,1 3.8,3.2 1.6,0.4 h 0.2 l 8.5,5.3 5,1.4 h 0.3 l 16.5,-1.5 4.3,-2.7 6,-2.4 2.9,-1.1 2.4,-3.3 0.2,-0.6 1,-2.4 1.1,-2.6 0.5,-1.3 2.5,-1.2 0.1,-0.1 1.1,-2.1 3.1,1 -2.1,3.7 -0.4,0.6 v 0 l 0.9,0.2 v 0 l 0.8,-0.8 2.3,-2.4 0.7,-0.7 0.8,2 v 0.1 l -0.8,3.1 -1.4,3 -3.8,8 -3.1,3.5 -4.8,2 -2.7,2.1 -4,1.4 -2.1,1.8 -8.9,1.6 -8.2,3.6 -3.5,0.6 -6.4,-0.5 -7.5,-0.2 -4.3,-1.2 -1.8,1.5 -4.3,-0.8 -0.7,-0.3 -9.8,-4.2 -7.2,-4.4 -3.1,-0.5 -7.6,1.6 -3.1,3.4 -0.2,1.2 -0.6,3.5 0.9,2.3 2.6,0.8 1.9,1.9 1.9,5 4.7,0.1 3.6,0.1 2.9,1.1 2.4,-0.6 5,-1.2 -0.2,1.7 -1.3,0.6 1.7,3.5 h -1.2 l -6.5,-0.4 -12.6,1.2 -2.4,-0.3 -4.7,-3.6 -4.2,-1.4 h -5.5 l -14.4,8.9 -2.7,-0.8 -6.8,2 -2.1,0.4 -1.8,1.5 -0.2,1 -0.5,2 1,2.6 1.9,1.5 h 1.4 0.8 l 2.2,1.3 5.1,3 3.2,7.4 5.4,1.4 1.9,1.9 2.4,2.5 0.7,2.5 3,3.8 1.1,1.4 16.6,3.6 3.9,-2.2 1.5,1.5 4.1,0.8 2.5,-1.1 8.4,4.2 1.3,1.5 4.8,2.6 1.8,-0.3 1.6,-2 1.5,-1.8 7.5,2.8 2.3,0.9 0.9,0.3 2.7,3.7 1.6,0.7 2,1 1.4,1.2 1.7,1.5 1.1,0.9 0.3,0.8 0.8,1.9 v 0.3 l -0.2,2.6 2.7,5.9 0.5,8 -3.4,0.8 -4.3,3.1 -1,-2 -2.9,0.6 -0.8,-0.6 -0.5,-0.4 -1.8,0.1 -2.6,2.3 -1,0.8 -1.1,-1.4 -0.6,0.2 -2.1,0.9 v 0 l -2.7,1.4 -3.1,0.1 h -0.9 l -0.1,-0.4 -0.6,-2 -3.4,0.4 -1.4,-1.2 -1.9,0.3 -1.9,1.6 -3.3,2.8 -2,0.8 -3.1,1.2 -1.1,1.6 -3.5,-0.5 -3.8,-3.1 -2.8,-0.4 -7.1,-4 -3.7,-5.3 -7.6,-7.2 -2.6,-5.5 1.1,-2.2 -3.5,-8.4 -6.5,-3.9 -2.3,-1.4 -3.9,-3.4 -2.8,-0.6 -8.6,-4.5 -5,-1.5 -7.1,1.6 -4.8,-7.4 -1.6,-1.4 -1.3,0.1 -4.7,0.2 -3,1.8 -4.9,-0.8 -4,0.4 -3.6,0.4 -2.3,-0.2 -4.1,-3.7 c 0,0 -4.8,-0.9 -6.4,-0.7 -1.6,0.2 -3.7,2.5 -4.6,2.5 -0.9,0 -3.7,0.2 -4.6,0.2 -0.9,0 -5,0 -6,-0.5 -0.9,-0.5 -3.9,-0.7 -6,-0.7 -2.1,0 -2.8,0.2 -3.9,0.5 -1.1,0.2 -1.8,2.7 -2.7,3.2 -0.9,0.5 -1.8,4.1 -1.8,5 0,0.9 -2.5,3.9 -2.5,3.9 0,0 -3,2.3 -4.4,2.5 -1.4,0.2 -3.2,-0.7 -4.4,-1.8 -1.1,-1.1 -3.7,-5.5 -3.9,-6.4 -0.2,-0.9 -2.7,-4.8 -2.7,-6.2 0,-1.4 -2.5,-3.9 -3.4,-4.6 -0.9,-0.7 -4.8,-3.9 -6,-4.1 -1.2,-0.2 -1.8,-3 -3,-3.2 -1.1,-0.2 -2.1,-3.4 -2.1,-5.5 0,-2.1 -0.7,-4.3 -0.7,-4.3 l -2.1,-2.2 -1.6,-0.6 -4.7,-1.7 -5.7,0.1 -3.1,-1.2 -3.3,0.6 -5.9,3.3 -6.1,4.9 -3,0.6 -7.8,5 -3.3,2.2 -7.3,5.9 -8.5,4.9 -2.8,4.9 -0.2,5.5 3.5,2 6.8,6.5 8.9,5.6 7.1,8.6 5.2,10.1 7.2,6.1 1.3,0.4 2,0.7 5.3,4.8 0.5,-0.1 2.8,-0.6 h 0.2 l 0.7,-0.3 2.9,-1.4 1.6,-0.7 1.2,2.4 2.6,0.2 4.6,-0.5 1.7,0.5 3,-2.1 2.3,-3 2.6,-0.4 0.7,-0.1 0.2,-1.8 2.1,-1.6 2.3,0.6 0.8,-1.4 4.6,-0.9 1.4,-1.9 1.8,2.7 -1.6,3.4 -1.8,-0.4 -0.9,0.8 -1.1,1 6.2,5.1 v 0 l 4,3.3 1.4,1.2 1,1.9 1.7,3.2 0.1,1.2 0.1,1 2,2.4 6.1,1.4 1.7,-0.9 4.6,1.5 2.6,0.9 0.4,1.7 3.6,2.4 6.7,6.5 1.1,1 1.9,-0.3 12.6,-2 7.4,-3.3 1.1,1 1.8,0.1 4.4,0.4 4.2,-10.8 2.3,-3.1 0.3,-1.3 0.5,-2.6 2.5,-5.1 -1.1,-3 1.5,-2.2 6.3,-3.9 5.3,-0.4 3,-1.8 1.2,0.1 10,8.4 3.6,2.5 4.2,1.5 1.5,-0.3 4.2,4.5 2.5,6 6.6,3.3 13.6,3.4 3.4,2.1 4.4,1.7 3.8,0.2 1.6,-0.7 3.4,-1.5 3.7,-0.4 3.5,-3.2 3.5,-0.7 1.9,1 1.5,1.8 6.4,-0.6 3,2.1 2.8,5.9 -0.8,4.8 1.1,3.5 c 4.3,-1 27.3,-2.1 29.8,0.8 0.5,2 0.8,5.4 2.8,6.5 4.6,2.8 22.4,3.7 27,0.3 2.3,-1.7 1.4,-5.1 3.2,-7.1 -0.1,-0.4 -0.3,-1.6 -0.5,-1.9 -0.7,-1.3 -2.3,-2.6 -3.1,-4 -1.2,-2 -1.9,-4.4 -3,-6.4 -1.9,-3.2 -6.3,-6.2 -7,-9.9 -0.9,-4.6 3.4,-7.2 4.2,-10.9 -0.3,-2.5 -1.8,-4.7 -4.4,-5.2 l -0.8,-1.6 c 0.8,-1.3 2,-1.7 3.3,-2.3 7.3,-3.5 15,-5.7 22.1,-9.8 1.9,-1.1 3.4,-3.5 5.4,-4.1 1.2,-0.4 2.8,-0.4 4.1,-0.4 2.3,-0.1 14.9,-2 15.5,-1.8 l 1.3,1.2 c 0.8,1.7 -1.3,10.6 -2,12.7 -0.4,1.2 -1.3,2.2 -1.8,3.4 -1.8,4.5 -0.8,9.6 1.3,13.8 3.4,1.9 11.7,-4.3 15.5,-4 0.8,0.1 2,0.5 2.8,0.8 2.1,0.8 4.7,2.4 6.8,2.9 4.4,1.1 3.3,-0.8 9.1,2.2 2.1,0.3 6.1,-2.2 8.8,-2.5 l 0.6,-1.6 c -1.1,-1.5 -0.7,-3.6 -1.5,-5.3 l 0.6,-1.2 c 1.1,-2.3 4.5,-2.7 6,-4.4 2.5,-2.8 2.6,-7.3 5.7,-9.6 0.9,-0.6 2.3,-0.9 3.2,-1.5 1.7,-1 3.2,-3.5 4.7,-5.2 1.9,-1.4 4.3,-1.9 6.1,-3.2 1.9,-1.4 2.5,-4.2 4.3,-5.8 5.7,-5.1 16.4,-1 21.6,3.5 2.2,1.9 3.9,4.5 6.6,5.9 0.7,2.2 -0.8,4.3 -0.7,6.5 0.1,1.4 0.8,2.4 0.5,4 -0.8,1 -1.8,1.5 -2.6,2.4 -1.9,2.2 -2.2,11.5 -1.4,14.3 0.4,1.4 1.6,3.3 2.3,4.7 -5.2,0.3 -8.3,-3.4 -12.5,-5.3 -1.9,-0.8 -3.9,-0.2 -5.7,-0.9 l -1.2,1.3 c -0.4,2.3 -0.5,4.5 -0.5,6.8 3.5,7.2 18.8,2.5 24.4,1.6 2.4,-0.4 9.9,-1.1 12.2,-0.9 6.4,0.7 9,8.2 13.4,9.3 0.4,-0.1 1.7,-0.3 2,-0.4 1.6,-0.7 2.4,-2.6 3.7,-3.7 5,-4.3 18.3,-15.7 20.7,-21.2 4.3,-10 -2.7,-13.6 8.7,-21.7 l 1.9,0.3 c 2.2,2 0.6,4.9 4.3,7.6 2.2,0.6 4.3,-0.6 6.4,0.4 2.8,1.4 8.7,16 10.3,19.5 -0.3,7.4 -8.9,11.9 -9.2,19.2 -0.3,8.7 15.5,19.8 18.7,29.1 1.3,3.6 0,11.4 3.6,13.6 10.6,6.5 13.8,-4.5 22.3,1.1 2.7,1.8 6.6,1.6 8.8,4.4 1.2,2.7 -3.4,17.3 -4,21.4 l 0.8,1.6 c 2.1,1.7 5,1.5 7.5,0.9 2.4,-0.6 4.6,-1.9 7.2,-1.9 6.1,-0.2 11.1,3.8 19.2,2.5 4.8,-0.7 5.5,-6 11,-5.5 3.3,0.3 7,2.2 10.5,3.2 1.8,0.5 3.9,0.6 5.7,-0.2 1.8,-0.9 2.7,-3.5 4.6,-4.4 1.8,-0.8 4,-0.4 5.8,-0.9 2,-0.6 6.5,-2.2 8.3,-3.1 2.7,-1.3 3.9,-4.6 6,-6.5 3.1,-1.1 9.3,-0.2 11.6,2.1 1.2,1.1 2,3 3.1,4.3 1.2,1.4 2.7,2.2 4.1,3.2 4.9,3.6 5.8,8.6 5.6,14.3 -0.1,3.7 -1.2,10.4 0,13.6 1.9,2.4 23.8,8.6 28.4,11.1 5.6,3 1.8,8.6 9.4,10.2 2.6,0.5 5.1,-1.1 7.6,-1.3 2.1,-0.2 4.6,0.7 6.6,0.3 5.1,-1 6.5,-4.9 12.7,-1.9 12.1,5.7 6,7.1 9,12.6 0.8,1.5 2.5,2.6 3.6,3.8 4.3,-0.5 7.9,-2.8 11.9,-4.1 2.8,0.2 4.1,2.6 5.7,4.4 1.1,1.2 2.7,2.4 3.2,4 0.3,0.9 0,1.8 -0.3,2.6 -2.7,6.8 -12.7,8.8 -12.7,15 1.2,4.6 6.4,4.3 8.2,6.5 l 0.5,1.8 c -1.2,6.8 -8.4,2.6 -11.8,3.5 l -1.2,1.3 c 1,1.9 1.8,3.9 1.8,6 l -0.2,1.7 c -0.2,1.7 -1.2,3.1 -1.5,4.8 -0.2,1.4 0.1,3 -0.2,4.3 -0.2,0.9 -1.2,2.5 -2.1,3.1 l -1.9,0.3 c -1.5,-1 -3.1,-2.5 -5,-2.4 -1.9,2.8 0.4,5.7 -4,10.8 -0.9,3.2 1.5,4.3 3.8,5.7 l 0.7,1.5 c 0,2.4 -1.4,4.2 -1.8,6.5 -0.2,1.4 0.1,2.7 0.1,4.1 0,0.6 -2.4,8.2 -2.6,8.4 -3.1,5.2 -16.5,8.8 -13.4,17.1 3.4,3.2 6.6,-0.6 9.5,-1.9 l 1.8,0.7 c 2.4,3.9 -0.6,7 -2.8,10.2 -4.8,7 -4.5,18.2 -13.9,15.7 l -0.9,0.7 c -0.6,0.5 -0.4,0.2 -0.7,0.9 -1.1,2.4 -1,5.2 -2.2,7.7 -1.2,2.3 -3.5,3.4 -4.2,6.2 -3.9,-0.4 -8,0.7 -11.2,2.8 -0.3,2.4 -0.3,6.4 -3.1,7.4 -1.9,7.1 -0.7,10.7 2.2,17.1 3.5,7.7 12,8.8 18.2,13.3 -0.2,1.3 -0.7,2.7 -1.4,3.8 -0.2,3.3 2.9,5.7 2.6,8.9 -0.4,3.8 -3.6,7.4 -4.5,11.4 l 2.2,1.5 c 4.5,0.4 4.4,-3.9 10,-3.1 l 1,1.4 1.9,0.7 1.7,-0.4 c 0.8,-1 1.7,-1.8 2.5,-2.7 2.5,-2.6 4.2,-8.3 8.2,-8.7 l 1.3,1.2 c 0.2,1.7 1,3.6 2.5,4.6 6.2,0 5.5,4.4 9.3,7.2 3.4,0.3 7.9,-3.7 11,-5.2 l 1.7,0.6 c 0,1.1 0.3,2.6 0.8,3.5 3,1.1 8.9,-2.7 10.6,-5.2 1,-0.1 2.1,0.1 3.1,0.3 0.8,1.8 0.4,4.5 0,6.4 l 1.6,1.4 c 5.7,0.5 17.8,-5 21,-4.6 3.3,0.4 5.3,3.9 8.7,4 1.2,0 2.5,-0.7 3.7,-0.7 1.2,-0.1 2.4,-0.2 3.6,-0.4 4.4,-10.8 -5.3,-13.6 -11.1,-20.6 -0.4,-1.1 0.5,-2.7 1,-3.7 l 1.1,-0.7 h 1.4 c 5.1,3.4 6.9,1.6 9.3,-3.5 3.5,-7.5 -2.3,-11.5 -1.1,-16.4 3.1,-2.8 8.1,-6.1 12.6,-5.5 0.6,0.5 1.2,1.2 1.6,1.9 l 1.5,0.5 c 5.1,-1.1 3.2,-6.8 5,-9.6 0.5,-0.8 2,-2 2.8,-2.7 0.9,-2.4 -4,-8.4 -4.3,-11.5 -0.5,-4.8 2.1,-7.3 3.4,-11.4 l -0.4,-1.2 c -2.1,-1.6 -6.3,-0.9 -8.9,-1.9 -0.1,-0.9 -0.5,-2 -1.1,-2.7 -1.7,-0.7 -4.3,-0.1 -6.3,-0.6 -7.1,-1.8 -6.5,-8.5 -7.4,-14.3 0.4,-0.8 1,-1.6 1.7,-2.1 0,-0.8 -0.5,-2 -1.1,-2.5 0.2,-3.4 4.6,-3.9 6.1,-6.7 l -0.2,-1.6 c -3.8,-5 -14.3,0.5 -19.4,-0.5 -3.8,-0.7 -5.3,-5.2 -9.9,-3.7 -4,1.3 -12.4,8.1 -16.2,6.2 -1.1,-4.1 2.8,-7.5 3.1,-11.2 -1.5,-2.9 -2.4,-5.7 -4.1,-8.6 -4.4,-1.8 -4.1,0.6 -6.4,-4.7 0.5,-2.6 1.2,-5.8 0.8,-8.4 -0.3,-2.3 -3.4,-3.6 -2.4,-6 1.2,-3 8.3,-1.8 12.6,-9 l 1.5,-0.5 c 3.6,1.4 2.8,13.7 10.4,15.1 1.7,0.3 3,-0.4 4.7,-0.6 0.8,-0.6 1.1,-1.3 1.7,-2.1 0.8,-1 2.1,-1.7 2.8,-2.7 2.1,-3 2,-7.7 3.8,-10.9 1.6,-3 5.2,-6.1 7.8,-8.6 3.6,-4 9.7,-4.8 13.5,-8.4 2.4,-2.3 3.6,-6.7 5.8,-8.9 1.6,-1.5 5.7,-2.6 8.1,-3.5 2.3,-0.8 3,-3.7 4.9,-5.2 3.7,-2.9 8.1,-3.9 12.3,-5.9 4.5,-2.2 8,-5 11.7,-8.1 0,-0.8 -0.3,-2.2 -0.9,-2.8 -3,-1.8 -5.9,-0.8 -7.9,-4.9 l 0.5,-1.2 c 3.4,-1.8 6.4,-4.7 9.7,-6.7 0.1,-3.4 -4.1,-4.3 -6.7,-3.2 -3.3,1.3 -15.4,12.2 -18,12.8 -0.5,0.1 -2.6,-0.1 -3.2,-0.1 -1.8,-1.2 -2.5,-1.7 -3.6,-3.7 -1.1,-2.2 -3,-20.1 -2.4,-22.5 0.5,-1.9 2.2,-2.7 3.7,-3.7 -0.3,-2.7 -2.4,-5.8 -2.3,-8.1 1.3,-2.2 3.6,-3.4 5.4,-5.2 2.2,-2.3 6.2,-6.7 7.7,-9.4 1.1,-2.1 1.5,-4.4 2.7,-6.5 1.8,-3.4 5.3,-5.8 7.2,-9.3 2.9,-5.3 4.6,-10.7 7,-16.3 2.2,-0.6 4.4,-1.7 6.7,-2.3 1.2,-1.8 1.5,-4.8 3,-6.2 2.8,-2.7 7.5,-5.3 8.9,-9.3 1.3,-3.8 -2.9,-13 -2.1,-15.2 0.9,-1 2.1,-1.5 3,-2.5 l -0.3,-1.4 c -1,-1.3 -3.5,-2 -5.1,-2.2 l -0.7,-1.2 c -0.3,-2.3 2.8,-11.6 3.1,-14.9 0.3,-3 -1,-5.4 -0.9,-8 0.1,-3.4 2.7,-6.6 3,-9.9 0.5,-5 -5.7,-9.7 -4.6,-18.5 0,-2.1 0.1,-4.4 -0.8,-6.4 -3.1,-6.3 -9.5,-10.6 -12.6,-16.7 -1.3,-2.5 -2.8,-8.2 -4.6,-10 -2.3,-2.3 -5.5,-2.6 -7.6,-5.2 -2.7,-3.3 -2.9,-7.8 -5.2,-11.2 -1.6,-2.5 -5.1,-3.4 -7.2,-5.7 -1.4,-3.2 6.1,-20.6 7.3,-25.3 l -0.9,-0.9 c -2.9,-0.7 -5.7,-2 -8.7,-2.8 -5.8,-1.5 -17.3,-3.2 -19.2,-10.3 0,-0.1 0,-0.1 -0.1,-0.2 -0.3,-1.3 -0.1,-3 0.2,-4.8 v 0 c 0.1,-1 0.3,-2 0.3,-2.9 0,-3.5 -1,-6.9 0,-10.3 0.4,-0.6 1.5,-1.3 2.2,-1.5 l 0.5,-0.9 c -3.3,-3.5 -12.5,-11.3 -17.4,-11.7 -3.1,-0.3 -6.4,1.4 -9.7,1.2 -1.6,-1.4 -2,-3.7 -1.9,-5.8 0.7,-0.4 1.2,-0.8 1.8,-1.4 2.5,-2.6 9.8,-5.1 9.8,-9 -0.3,-1.2 -1.3,-2.4 -2.2,-3.3 0.2,-0.8 0.8,-1.6 1.4,-2.2 l 0.2,-1.8 c -0.4,-0.8 -0.8,-1.6 -1.1,-2.5 -0.6,-0.6 -2,-1 -2.8,-0.9 -4.6,-4.3 2.3,-10.9 -8.9,-13.1 l -0.5,-1.3 0.6,-1.2 c 0.7,-0.5 1.6,-1.1 2.4,-1.3 l 0.5,-0.9 c -0.7,-0.6 -1.6,-1 -2.4,-1.3 v -1.1 c 7.7,-6.8 13,-0.8 19.7,-3 2.6,-0.8 7.4,-6.6 9.9,-8.5 4.9,-3.9 4.2,-1 6.7,-8.6 3.1,1.8 5.6,4.5 9.1,5.6 9.1,2.9 18.7,3.2 27.3,7.7 0.9,-0.8 1,-2.8 1,-4 0.2,-9.8 -5.7,-5.9 -9.4,-12.6 -2.6,-4.7 -0.6,-5.2 -6,-10.2 -1.3,-1.2 -3.7,-1.2 -4.5,-2.5 0,-1.5 1.4,-2.5 2.1,-3.7 1.8,-0.6 4.6,-0.1 6.7,-0.3 1.5,-0.1 2.7,-0.7 3.9,-1.5 1.2,-0.8 2.4,-1.6 3.9,-1.3 1.4,0.3 6.6,4.2 7.5,5.5 0.6,0.9 1.6,4.1 1.9,5.3 0.7,0.6 1.6,1 2.4,1.3 0.7,1.3 0.8,2.7 1.4,4 3.2,6.4 11.3,2.5 17,2.9 1.6,-0.1 3.6,0.1 5.2,-0.3 1.3,-0.3 2.3,-1.6 3.7,-1.8 2.5,-0.4 6.1,3.3 7.3,5.2 1.6,2.4 1.2,4.9 3.2,7.7 1.6,0 2.9,-0.8 4.4,-0.9 3.6,-0.3 11.4,1.7 13.9,4.6 0.6,2 -1.1,4.7 -0.7,7.4 2.5,1 6.4,-1.4 9.1,-1.3 1.7,0.1 3.3,2 4.7,1.6 0.4,-0.6 -0.3,-13.9 -0.7,-14.8 -0.6,-1.5 -1.7,-3.3 -2.5,-4.7 l 0.5,-1.5 c 2,-0.9 3.7,0.5 5.4,1.2 1.3,0.5 7.8,2.4 8.9,2.4 1,0 2.1,-0.6 3.1,-0.5 1.3,0.2 4,3.3 4.9,4.3 1.7,0.2 2.7,-0.4 4.3,-0.9 8.8,-2.7 4.8,-3.4 9.6,-6.9 2.2,-1.6 5.3,-2.1 7.7,-3.2 2.7,-1.3 4.6,-4.1 7.1,-5.8 1.1,0 2.3,0.2 3.3,0.5 4.2,-1.3 7.8,-4.5 11.9,-6.2 5.7,-2.3 18.2,-4.1 21.6,-5.8 2.7,-1.3 5.2,-4.9 8.6,-3.9 1.3,0.4 1.9,1.8 2.7,2.8 2.4,3.1 5.5,4.4 9,5.9 0.6,0.1 7.3,-3.8 8.6,-4.4 0.9,-1 1.2,-2.5 2.1,-3.4 3.4,-3.3 9.1,-4.1 12.1,-8.3 2.8,-4 2.6,-12.8 5,-15.4 2.3,-2.6 6.6,-1.1 8.2,-4.6 2.1,-4.3 -1.2,-8.2 -0.9,-12.3 -1.9,-1.6 -4.4,-4.1 -5.8,-6.1 -5.9,-8.2 -11.8,-8.1 -19.5,-13.2 -9.3,-6.3 -6.9,-7.8 -19.5,-6.7 l -1.1,-0.7 c -0.7,-1.4 0.2,-5.5 0.2,-7.3 0,-1.5 0.8,-7.7 1.9,-8.7 3.5,-3.3 13,-0.8 16.7,-7.1 1.7,-2.9 0.6,-5.2 1.3,-8 0.1,-0.4 0.4,-0.8 0.6,-1.2 1.1,-2.3 1.4,-4.7 2.4,-6.9 0.1,-0.3 0.6,-0.9 0.8,-1.1 4.4,-4.8 27.8,0.6 33.6,-3.1 6,-3.9 3.3,-11.3 5.6,-16.5 1,-2.3 2.6,-2 3.8,-3.5 1.7,-2.1 2.7,-6.6 5.1,-8 1.7,-0.9 15.5,-2.4 18,-5.7 5.1,-6.8 5.7,-18.1 11.8,-23.4 5.8,-1 15.2,0 19.5,-4.3 l 0.2,-1 c -0.8,-2.2 -1.5,-4.5 -2.8,-6.5 -7,-14.5 -6.5,-16.2 -2.7,-31.9 1.2,-5.1 10.8,-20.3 11.4,-24.2 0.5,-3.8 -0.9,-8.9 -1.5,-12.7 -1.8,-11.9 -2.1,-10.2 -11.4,-16.3 -1.9,-1.3 -3.4,-2.5 -4.5,-4.7 -1.9,-3.8 -6.3,-21 -10.3,-22.4 l -1.2,0.6 c -2.5,3.8 -6.4,11.6 -11,13.3 -2.5,1 -7.5,-2 -10.2,-2.4 -1.7,-0.2 -3.5,0 -5.3,-0.4 -3.9,-0.9 -7.6,-3.8 -11.6,-4.2 -0.8,-0.1 -1.2,-0.2 -2,-0.5 -0.5,-0.2 -1.3,-0.5 -1.7,-0.8 -1.5,-1.1 -1.4,-3.3 -2.8,-4.4 -6,-1.9 -25.1,5.7 -32.9,-3.1 -3.3,-3.7 -10.6,-8.3 -14.9,-11.2 -0.2,-0.9 -0.6,-1.7 -1,-2.5 0,-1.6 0.6,-3.5 0.9,-5.1 0.6,-3.4 0.1,-14.7 -0.9,-18.1 -0.8,-2.5 -3.2,-5.6 -4.5,-8 l 0.5,-1.5 c 2.7,-0.4 8,2.6 10,-0.9 1,-1.7 0,-3 2,-5.3 2.8,-0.1 8.8,1.6 10.9,-0.6 l 0.5,-1.3 c -2.3,-5 -11.4,-7.8 -13.5,-10.8 1.2,-9.1 5.9,-11.4 0.6,-19.3 -0.1,-0.1 -0.1,-0.2 -0.2,-0.2 0,0 -0.1,-0.1 -0.1,-0.1 -0.1,-0.1 -0.1,-0.2 -0.2,-0.3 0,0 0,-0.1 -0.1,-0.1 -0.1,-0.1 -0.2,-0.2 -0.2,-0.3 0,0 0,0 0,0 -0.1,-0.1 -0.2,-0.3 -0.3,-0.4 l 0.6,-1.5 c 0.1,0 0.3,-0.1 0.4,-0.1 3.9,-1.2 8.5,-9 14,-11.6 8.2,-3.9 9.6,1.2 16.5,1.2 6.2,0 13.1,0 19.3,-0.9 2.4,-0.3 5.2,-1.2 7.6,-1.2 0.5,0 2,0.4 2.5,0.6 2.5,1.1 4.4,6.2 6,6.9 1.2,0.1 16.5,-0.7 17.1,-0.9 1.1,-0.8 1.7,-2 2.8,-2.8 5.5,-1.3 11.1,10.5 19.8,6.5 3.7,-1.7 6.3,-12.2 6.4,-16.1 0.1,-4.6 -0.7,-9.2 -0.4,-13.9 0.4,-5.6 1.4,-11.1 1.9,-16.7 0.4,-5 0.3,-10.2 0.5,-15.3 0.7,-10 -0.2,-18.8 1.3,-29.2 0.2,-1.7 -0.2,-3.7 0.3,-5.3 1.6,-5.4 8,-9.1 6.9,-14.9 -0.5,-3.9 0.1,-6.6 2.1,-10 2.8,-4.6 7.2,-8 10.4,-12.2 1.8,-2.3 4.1,-5.3 5.2,-8 0.5,-1.4 0.8,-2.7 1.6,-4 2.8,-4.6 7,-8.1 9.7,-12.9 1,-1.8 7,-18.5 7.5,-20.7 0.8,-4.1 1.4,-8.3 2.7,-12.7 -0.4,-3.3 2.9,-7 2.6,-9.1 -0.3,-0.6 -1.3,-1.8 -1.5,-2.2 -0.6,-1.8 -3,-33.1 -2.9,-36.5 0.1,-4 1.1,-10.3 0.3,-14 -1.2,-5.5 -6.8,-3.6 -6,-13.7 0.3,-3.6 1.7,-5.3 2.9,-8.4 0.9,-2.5 0.1,-5.7 1,-8.3 0.8,-2.2 2.9,-3.5 3.9,-5.6 3.8,-7.9 3.3,-16.8 1.5,-25.1 -0.4,-1.9 -1,-7.9 -1.8,-9 l -8.4,-0.4 -5.8,-2.7 -2.2,1.1 -8.7,-3.6 -6.3,-1 -3.5,-1.3 -6.3,-6.1 1.3,-7.4 -1.9,-7.7 0.4,-0.9 3.3,-3.9 -0.2,-1.2 -0.1,-0.7 v 0 l -0.7,0.4 -5.7,3.4 h -0.2 l -2,-0.3 -15.7,-2.3 -4.2,-1.8 -1.5,-1.5 -0.2,-1.5 -2.9,-0.4 -2.7,-0.4 -1.1,-2.1 -2.5,-1.6 -8.6,-2.7 -7.3,-7.1 -7.6,-5.1 -5.2,-19.2 v -6.3 l -3.1,-4.4 -1.9,-2.7 -0.2,-0.2 1.8,-6.8 -0.4,-4.5 1.3,-4.1 -11.7,-8 -2,-0.2 -0.9,2.2 -0.2,0.5 0.1,0.9 2.5,1.5 v 1.4 l -7.1,-0.2 -1.9,-1.9 3.7,-3.4 v -0.4 -0.2 -2.7 l -4.2,-1.5 -1.6,0.9 -4.1,2.2 -7,-2.8 -9.5,-1.8 z m -228,4 -5.5,0.5 -1.3,1 1.2,3.1 v 2.7 l 1.7,1.1 1.2,-2.7 1.4,-0.4 1.6,-2.1 1.1,0.6 0.5,-1.2 z m -168,3.8 -5.8,0.6 -12,3.7 -36.7,11.2 -6,1.9 -24.6,6.8 -6.3,1.3 -2.6,0.5 -0.9,0.2 -9,1.1 -6.2,0.8 -1.9,-0.3 -2.9,-0.5 -1.7,1 -1.4,0.9 1.2,0.1 2.7,0.3 -1.2,0.6 -2.6,1.3 -3.3,4.4 -11,9.6 -0.6,3.2 2.5,7.2 3.1,2.1 3.8,0.6 3,-1 4.1,-2.8 v -1.5 l 1.1,-1.1 0.6,-0.2 1.3,-0.5 0.6,-0.2 3.1,-4.3 5.4,-0.2 0.3,-0.3 3.1,-3 4.4,-1.8 6.3,-0.1 2.4,1 3.1,-1 2.2,-2 3.5,-0.7 2.9,0.8 0.2,0.1 7.1,-4.8 0.6,-0.4 0.8,-0.5 3.6,-2.4 9.4,-5 23.6,-0.9 1.5,-1.6 -6.1,-5.3 v -1 l 1.7,0.1 3.1,2.4 3.5,0.2 -1.7,-4.2 1.7,0.2 2.1,1.7 2.7,-0.6 2.3,-1.7 2.9,-0.6 3.8,-2.6 0.5,0.2 2.3,0.7 1.6,-0.8 2,-1 4.2,-2.2 0.4,-0.2 1.6,-2.6 2.9,-0.2 1.4,-0.7 3.7,-1.9 -0.1,-0.2 -0.6,-1.2 z m -161.2,78 -2.9,0.4 -8.4,3.7 -11.9,6.5 -0.6,0.4 -4.4,3.1 -8.2,5.7 -1.2,0.8 -3.5,4 -3.2,3.6 -6.5,6 -6.2,4.2 -6.8,1.9 -6.6,4.3 -1.7,1.5 1.6,2.8 1.2,-1 3.6,1.5 5,-0.5 1,-0.1 h 0.3 l 0.8,-0.1 3.5,1.5 5.2,-0.4 8.2,-10.7 6.3,-2.2 6.9,-5.5 0.6,-1.2 -0.7,-1 -1.9,-0.2 -1.7,-2.7 -0.8,-1.3 -0.5,-0.9 0.3,-0.4 0.8,-1.2 8.7,-3.8 3.7,-1.6 8.4,-2.7 0.8,-0.2 5.7,-3.7 4.1,-4.1 h 0.7 l 8.8,-0.2 0.2,-0.3 1.4,-1.9 -0.7,-2.1 z M 825,467.1 v 0 0 l -7.8,7.5 -0.3,0.4 -6.3,9.4 -3,4.5 -11.2,16.7 -0.9,1.4 -4.1,6.1 -0.1,0.2 -1,1.5 -2,5.3 -2.8,3.7 -1.8,4 -1.6,3.7 -5.1,22.9 v 4.5 l 1.8,5.2 1.6,2.7 1,1.6 0.3,0.5 0.3,0.5 0.6,0.5 2,1.6 8.7,-2.4 2.1,-0.9 0.8,-1.5 3.4,0.2 2.1,-0.9 0.9,-3.1 1.1,-0.8 1.4,0.7 0.3,-0.6 1.9,-3.9 7.5,-9.7 7,-2 4.4,-3.8 6.5,-7.8 2.3,-8 6.4,-5.5 v -9.1 l 0.3,-1.8 v -0.2 l 0.7,-4.1 0.1,-0.9 -0.1,-0.8 -0.7,-4.4 1.6,-6.1 0.5,-1.8 -4.3,-9.6 -1.3,-0.7 -3,-1.7 -1.7,-3.5 -0.4,-0.8 -0.6,-3.3 -5.6,-5.6 z m 265,306.7 -2.2,3 -1.5,1 -1.8,0.4 -4.7,2.5 -5.3,1.6 -6.2,0.4 -3.9,0.7 -5.7,4 -3.6,3.8 -1.5,1 -7.3,7.8 -2.9,1.9 -5.9,0.9 -4.8,1.5 -1,1.6 -1.6,3.7 -2,3.1 -1.4,1 -1,1.5 -0.8,2.2 v 3.9 l -0.6,2.2 -0.8,1.8 -4.1,3.4 -3.1,1.6 -4.3,3.1 -1.7,0.7 -3.9,0.6 -3.2,1.5 -2.7,2.4 -9.9,7.1 -6.4,3.2 -12.2,7.1 -2.8,2.1 -3,1.6 -11.4,8.3 -13.8,7.7 -1.8,0.4 -4.2,3.1 -1.2,1.3 -1.8,3.4 -2.4,2.7 -10.3,6.1 -0.7,1.3 0.7,1.6 1.1,1.3 0.5,1.9 0.2,1.9 -0.4,2.4 -0.2,4.4 0.2,2.1 1.3,3.3 2,2.8 1.4,1.2 1.6,1 1.7,0.4 3.9,-0.6 3.2,-1.6 1.8,-0.4 6.4,-0.3 7.9,3 4.3,1 10,3.5 9,4.3 8.3,4.6 9,8 2.3,2.7 1.7,0.9 9.2,8.3 2.3,2.7 3.8,1.5 h 4.2 l 8.8,-3 20.6,-4.4 4.2,-1.8 1.5,-1 1.6,-3.7 1.2,-4.3 5.7,-12.7 -0.2,-1.9 -4.5,-9.6 -0.2,-1.9 0.4,-2.4 6.3,-6.2 2.7,-2.4 1.6,-0.7 7,0.6 4.3,-0.7 1.1,-0.6 3.1,-4.7 4.8,-4.7 18.3,-10.3 9,-2.7 11.1,0.3 3.2,-1.5 7.6,-4.4 2.9,-2.1 1,-1.6 2.4,-5.5 5.3,-7 3.2,-5 3.1,-6.4 2.3,-3.8 2.7,-5.3 2.4,-15.8 -0.5,-6.8 -1.9,-4.9 -2.1,-2.8 -1.2,-1.7 -2.1,-4.5 -0.9,-1.1 -0.2,-0.2 -0.2,-0.3 -1.4,-2.2 -1.4,-1.2 -6.6,-1.3 -6.8,-0.3 -4,-0.7 -2.5,-0.5 -2.4,-2.7 -1.6,-0.9 -11.6,-1.6 -6.8,-1.5 -1.9,-0.9 -2.5,-0.3 -4.1,-1.3 -3.8,-1.6 z m -179.6,72.5 v 0 l -1.1,0.3 -0.8,4.8 -2.1,2.5 v 1.5 l 1.4,0.8 4.5,-2.2 6,-3 2.2,-0.4 0.5,-0.9 -0.6,-1 -6.6,0.5 -2,-1.6 z m -390.7,361.8 -2.2,2.1 -2.2,3.9 -3.7,3.1 1.3,0.9 5.8,-2.4 6.7,-0.8 5.5,2.1 0.3,-1 -5.7,-3.8 -4.1,-3.9 z m -23.9,12.4 -5.9,2.9 -6.5,1.6 0.4,2.2 v 0.2 l -2.1,7 -9,-1.8 -6.2,0.4 -0.8,0.3 -0.6,0.2 -0.2,0.1 -5.5,2 -12.1,3.1 -5.5,2.7 -2.5,3.3 -3.4,6.7 -0.7,3.2 0.5,5.3 0.9,2.8 0.4,1.3 3,3.7 1,1.3 6.5,3.9 2.3,-0.2 0.9,-0.1 9.2,-1 1.9,-0.9 0.4,-1.7 1.4,-1.2 0.4,-0.3 0.4,-0.4 v 0 l 3.4,-1.3 h 2.2 l 2.2,-2.1 0.9,-0.9 4.6,-4.3 4,1.5 0.9,1.2 v 1.6 2.8 l 1,0.7 1.4,1 1.4,0.4 6.3,1.9 0.8,0.2 2.9,-0.5 4.2,3 2.3,5.9 2.6,3.1 v 3.7 l 1.3,5.2 1,0.6 3.3,2.2 4,0.6 1.5,0.2 1.3,-1.9 2,2.1 2.3,-3.4 0.2,0.6 2.2,4.1 3.5,3.1 5.1,4.5 10.6,-3.5 6.8,-2.2 6,-3.6 2.2,-0.5 2.8,0.9 1.5,0.5 6.8,-7.6 4.2,-2 1.6,-2 v -1.2 l 1.4,-2.1 0.2,-3.8 1.5,-3 -3.1,-0.6 -7.5,-1.3 -1.8,-2.3 -8.4,-4.2 -7.6,-0.8 -1.8,-0.9 v 0 l -0.4,-0.2 -3,-7.8 -2.6,-4.6 -1.8,-0.9 -1.3,-1.9 -1.9,-4.8 -3.4,-4.3 -13.7,0.9 -2.5,-0.6 -4.5,1 -6.2,-4.9 -3.8,-1.2 -12.9,3.4 -1.1,-0.9 -3,-0.5 -0.5,-3.9 0.7,-3.1 1.3,-2 0.5,-0.8 3.6,-0.5 7.8,3.3 0.2,0.1 v 0 l 0.8,-2.1 -0.9,-1.6 -3.1,-1.1 -0.7,-0.2 0.2,-0.4 v -0.1 z m 40.9,4.6 -0.3,2.2 3.1,4.5 2.1,3 3.2,6.6 2.5,0.1 0.7,-1.6 -1,-2.6 -2.5,-2.5 -1.5,-3.6 -0.6,-5.3 -0.9,-0.7 z m 96.4,1.7 -2.1,0.4 -0.3,1.6 2.5,2.6 6.8,5.5 8.5,4.4 0.6,0.8 4.6,-0.5 5.4,-2.1 0.7,-0.5 -0.1,-1.6 z m -102.6,3 v 0 l -7.5,0.3 -2,1.1 -0.1,0.3 -0.3,0.7 0.5,0.7 0.9,1.2 5.2,-1.2 3.2,-1.6 z m -15.4,3.4 -2.1,0.5 -0.4,1 -0.1,0.2 0.9,1.3 v 0 l 1.7,0.2 4.5,-0.4 z m 142.2,10.2 v 0 l -1.6,0.7 -1.4,2.1 2,0.8 5,0.1 0.1,-0.9 z m -206.7,35.4 -0.9,0.4 -0.8,0.4 -0.4,1.5 1.6,1 2.4,-1.8 z m -4.4,6.9 z m 0,0 -8.4,9.5 -1.5,2.7 0.6,2.1 2.2,-2.1 -0.8,-1.6 2.7,-1.3 1.7,-2.4 2.8,0.1 3,-3.5 0.9,-1.9 -1.8,-1.3 z m 42.1,20.2 v 0 l -5.1,1.2 -2.5,-0.6 -11,3 -0.9,0.3 -4,-0.3 -4.7,0.8 -2,1.8 -1.7,-0.8 -5.5,1.6 h -2.4 l -1.8,-2.1 -4.1,-1.8 -4.5,0.9 -5.3,0.7 -4.3,1.8 c 0.1,-0.3 -2.9,2.5 -2.9,3.4 0,0.9 1.1,4.8 1.4,6.2 0.2,1.4 2.1,2.3 3.4,3.4 1.4,1.1 3.7,2.1 4.8,3.2 1.2,1.1 5,3.9 6.2,5.3 1.2,1.4 2.1,3.4 2.3,5 0.2,1.6 -0.5,4.1 -0.5,5.7 0,1.6 1.4,1.8 2.3,1.8 0.9,0 1.2,-2.7 1.6,-3.7 0.5,-0.9 2.7,-2.7 2.7,-2.7 l 4.6,-3 c 0,0 2.1,-2.1 3.4,-2.7 1.4,-0.7 4.1,-2.5 5.7,-3 1.6,-0.5 3,0 4.8,0.7 1.8,0.7 3.4,1.4 5.3,2.1 1.8,0.7 3.2,1.1 4.4,0.9 1.2,-0.2 2.7,-3 5,-3.4 2.3,-0.5 3.2,0 5,0.2 1.8,0.2 1.8,1.6 3,3 1.2,1.4 3,2.7 4.4,2.7 1.4,0 3.4,-1.3 3.4,-1.3 l 2.8,-4.3 7.1,-1.9 0.4,-0.9 0.5,-1.2 -0.3,-0.6 -1.4,-2.6 -1.7,-3.1 -2.5,-1.4 -3.6,-7.3 -1.6,-2.1 -0.2,-0.2 -3.4,-2.3 z m 362,76.4 18.7,2.4 -9.6,13.5 -11.9,-2.8 z m -467.1,27.3 v 0 l -4.1,0.6 -12.2,6.6 -9.5,2.9 -5.8,-0.6 -16.3,6.3 -3.2,3.9 c -1.4,10.4 10.3,14.7 -2.7,28.7 l -0.2,1.9 c 0.3,1.7 2.5,2.8 3.9,3.4 l 0.8,1.6 c 0.2,2 -1.4,3.5 -1.8,5.3 0.7,2.3 2.7,3.8 3,6.4 0.2,1.9 -0.4,4.2 0.5,6.1 1.4,3 6.3,4.4 8.8,6.3 3.2,2.5 5.7,6 9,8.3 6.1,4.2 15.3,1.4 21.9,0.3 2.3,-0.4 4.7,-0.8 6.9,-1.3 l 1.1,-1.3 c 0.3,-5.2 -1.7,-15.7 -1,-18.8 l 1.2,-1.3 4.8,0.6 c 5.3,-1.8 4.5,-5.8 12.4,-3 1.2,-0.3 2.3,-0.7 3.3,-1.3 0.9,-1.6 1.8,-3.3 3.1,-4.6 5.4,-2.8 14.3,8.8 24.5,5.9 4.6,1.1 6.4,7.1 10.3,9 4.6,2.2 10.7,0.5 15.6,2.2 3.2,1.1 4.4,3.9 8.2,4.6 1.2,-0.4 2.4,-0.8 3.6,-1.1 1.6,0.5 3.7,1.4 4.5,3 -0.6,5.7 -3.6,15.6 -0.1,20.8 4.5,3.2 15,5 20.4,4.4 3.2,-0.3 6.4,-2.3 9.6,-1.9 0.7,0.8 0.6,2.9 0.3,3.9 l 1,1.3 c 8.3,1.9 11.2,-9.9 16.7,-4.1 7.6,0.9 18.9,-13.8 25.4,-17.7 4.3,-2.6 10.1,0.1 15,-2.8 4.9,-2.9 9.4,-6.6 14.3,-9.6 16,-9.7 26,-18.3 37.4,-33.4 2.3,-3 5.4,-6.6 7,-10.1 l -4,-3.7 -3,-6.4 -1.2,-2.5 -1.7,-1.2 -5.9,-1.3 -0.8,0.9 -0.1,2.8 0.7,1.2 -1.2,0.8 -2,-2.1 v 2.4 l 1.4,2.6 -1.2,1.1 -2,-2.4 -0.5,-3.4 -1,-0.8 -2.4,0.2 -1.9,1.2 -0.7,1.6 0.7,2.5 3.1,2.1 6,0.7 4.7,0.5 -0.1,1.6 -7.7,-0.5 0.3,0.9 2.9,1.5 0.8,2.6 -1.2,0.3 -2.8,-2.9 -2,0.8 0.9,2.4 -1.5,0.4 -3.2,-4.7 -0.8,0.8 1.4,3.3 -3.9,-5.3 -1.6,-1.2 -3,0.7 -0.9,1.5 2.8,4.6 3.4,2.9 -0.1,0.4 -0.2,0.6 -1.4,0.2 -6.1,-5.3 -1.7,-2.7 -3,-2.7 -4.7,-1.2 -2.8,-3.5 -3.1,-1.2 -7.8,-0.6 -3.5,-1.9 -1.5,-3.2 -3.9,-8.3 -2.4,-3.2 -2.5,-1.9 -3,-1.5 -4,-0.2 -7,-0.4 -1.8,3.2 -0.8,1.4 -0.4,5.7 -3.6,9.8 -3.7,0.8 -1.7,1.1 -5.1,0.7 -3.2,0.4 -4.9,4.6 -6.3,3.5 -3.5,4.7 -3,0.4 h -1.7 -2.9 l -6.2,-2.5 -2.9,-1.2 -1.2,0.8 -12.8,-3.5 h -0.1 l -1.4,2.4 -0.9,1.7 -0.4,0.8 -0.7,-0.4 -0.1,-0.1 -6.1,-3.1 -5.7,-1 -3.3,-1.3 -1.1,-0.4 -11.2,-10 -2.8,-1 -6.6,-0.1 -6.8,-1.8 -9.8,-4.7 -4,-0.8 -6.2,-3.6 -1.9,-1.6 -1.6,-1.4 -4,-1.3 -8.6,-2.7 z m 199.7,22.9 -0.8,1.8 0.7,1.8 1.6,1 5.1,-0.9 -0.3,-2.3 z" />
		</defs>
		<clipPath
   id="SVGID_85_">
			<use
   xlink:href="#SVGID_2_"
   style="overflow:visible"
   id="use1326" />
		</clipPath>
		
		
			<use
   xlink:href="#SVGID_2_"
   style="overflow:visible;fill:none;stroke:#2c2c2c;stroke-width:5.8304;stroke-linecap:round;stroke-miterlimit:10"
   id="use1333" />
	</g><g
   id="g1469"
   transform="translate(103.50996,1.002357e-5)"
   style="display:inline">
		
		<g
   id="g1385"
   style="display:inline">
			<defs
   id="defs1372">
				<path
   id="SVGID_1_"
   d="m 1006.7,1091.8 c 111.5,111.5 292.3,111.5 403.8,0 111.5,-111.5 111.5,-292.3 0,-403.8 -111.5,-111.5 -292.3,-111.5 -403.8,0 -111.5,111.5 -111.5,292.3 0,403.8 z" />
			</defs>
			<clipPath
   id="SVGID_87_">
				<use
   xlink:href="#SVGID_1_"
   style="overflow:visible"
   id="use1374" />
			</clipPath>
			<g
   class="st44"
   clip-path="url(#SVGID_87_)"
   id="g1383">
				<rect
   x="917.90002"
   y="598.40002"
   class="st45"
   width="580.29999"
   height="575"
   id="rect1377" />
				<rect
   x="917.90002"
   y="598.40002"
   class="st42"
   width="580.29999"
   height="383.29999"
   id="rect1379" />
				<rect
   x="917.90002"
   y="598.40002"
   class="st46"
   width="580.29999"
   height="191.7"
   id="rect1381" />
			</g>
		</g>
		
			<linearGradient
   id="SVGID_88_"
   gradientUnits="userSpaceOnUse"
   x1="1103.7758"
   y1="-5180.3525"
   x2="1172.0909"
   y2="-5180.3525"
   gradientTransform="matrix(0.9843,0.9843,0.9843,-0.9843,4604.7588,-4746.3193)">
			<stop
   offset="0"
   style="stop-color:#F9E295"
   id="stop1387" />
			<stop
   offset="0.125"
   style="stop-color:#F7DD84"
   id="stop1389" />
			<stop
   offset="0.206"
   style="stop-color:#FFFFFF"
   id="stop1391" />
			<stop
   offset="0.301"
   style="stop-color:#F4CE51"
   id="stop1393" />
			<stop
   offset="0.341"
   style="stop-color:#F9E7AA"
   id="stop1395" />
			<stop
   offset="1"
   style="stop-color:#EFBB0E"
   id="stop1397" />
		</linearGradient>
		<path
   class="st47"
   d="m 669,1496.7 -20.5,19.4 c -21.4,-22.7 -43.8,-45.7 -64.4,-68.9 l 19.2,-17.4 c 29.1,27.9 37.9,36.5 65.7,66.9 z"
   id="path1400"
   style="fill:url(#SVGID_88_)" />
		<path
   class="st48"
   d="M 998.3,1100.2 C 882.2,984 882.2,795.7 998.3,679.5 c 116.2,-116.2 304.5,-116.2 420.7,0 116.2,116.2 116.2,304.5 0,420.7 -116.2,116.2 -304.5,116.2 -420.7,0 z m 12.7,-12.6 c 111.5,111.5 288.1,115.7 399.6,4.2 111.5,-111.5 107.3,-288.1 -4.2,-399.6 C 1294.9,580.7 1118.3,576.5 1006.8,688 895.2,799.5 899.4,976.1 1011,1087.6 Z"
   id="path1402"
   style="display:inline" />
		<path
   class="st49"
   d="M 998.3,1100.2 C 882.2,984 882.2,795.7 998.3,679.5 c 0.7,-0.7 1.4,-1.4 2.1,-2.1 -114.1,116.3 -113.4,303.1 2.1,418.5 115.4,115.5 302.2,116.2 418.5,2.1 -0.7,0.7 -1.4,1.4 -2.1,2.1 -116.1,116.3 -304.4,116.3 -420.6,0.1 z m 10.5,-414.3 c 0.7,-0.7 1.4,-1.4 2.1,-2.1 111.5,-111.5 288.1,-107.3 399.6,4.2 111.5,111.5 115.7,288.1 4.2,399.6 l -2.1,2.1 C 1522,978.1 1517.1,803 1406.3,692.2 1295.6,581.4 1120.5,576.5 1008.8,685.9 Z"
   id="path1404"
   style="display:inline" />
		
			<linearGradient
   id="SVGID_89_"
   gradientUnits="userSpaceOnUse"
   x1="1137.7405"
   y1="-4862.0669"
   x2="1150.0488"
   y2="-4900.5303"
   gradientTransform="matrix(0.9843,0.9843,0.9843,-0.9843,4670.7065,-4812.2637)">
			<stop
   offset="0"
   style="stop-color:#2D3335"
   id="stop1406" />
			<stop
   offset="0.5"
   style="stop-color:#4C464A"
   id="stop1408" />
			<stop
   offset="1"
   style="stop-color:#384042"
   id="stop1410" />
		</linearGradient>
		<path
   class="st50"
   d="m 959.8,1017.3 -24.6,17.5 c 14.1,26.5 32.3,51.5 54.7,73.8 22.4,22.4 47.3,40.6 73.8,54.7 l 17.5,-24.6 c -25.3,-13 -49.1,-30 -70.3,-51.2 -21.1,-21.1 -38.1,-44.9 -51.1,-70.2 z"
   id="path1413"
   style="display:inline;fill:url(#SVGID_89_)" />
		
			<linearGradient
   id="SVGID_90_"
   gradientUnits="userSpaceOnUse"
   x1="-14569.499"
   y1="-4930.437"
   x2="-14526.773"
   y2="-4930.437"
   gradientTransform="matrix(-0.9843,-0.9843,0.9843,-0.9843,-8528.5459,-18011.516)">
			<stop
   offset="0"
   style="stop-color:#2D3335"
   id="stop1415" />
			<stop
   offset="0.5"
   style="stop-color:#4C464A"
   id="stop1417" />
			<stop
   offset="1"
   style="stop-color:#384042"
   id="stop1419" />
		</linearGradient>
		<path
   class="st51"
   d="m 997.3,1101.3 c 7.4,7.4 13.2,15.7 17.6,24.4 l -112,112 c -9,-4.5 -17.3,-10.5 -24.4,-17.6 -7.1,-7.2 -13.1,-15.4 -17.6,-24.4 l 112,-112 c 8.7,4.4 17,10.2 24.4,17.6 z"
   id="path1422"
   style="display:inline;fill:url(#SVGID_90_)" />
		
			<linearGradient
   id="SVGID_91_"
   gradientUnits="userSpaceOnUse"
   x1="1103.7675"
   y1="-5086.6543"
   x2="1172.1543"
   y2="-5086.6543"
   gradientTransform="matrix(0.9843,0.9843,0.9843,-0.9843,4670.7065,-4812.2637)">
			<stop
   offset="0"
   style="stop-color:#F9E295"
   id="stop1424" />
			<stop
   offset="0.125"
   style="stop-color:#F7DD84"
   id="stop1426" />
			<stop
   offset="0.206"
   style="stop-color:#FFFFFF"
   id="stop1428" />
			<stop
   offset="0.301"
   style="stop-color:#F4CE51"
   id="stop1430" />
			<stop
   offset="0.341"
   style="stop-color:#F9E7AA"
   id="stop1432" />
			<stop
   offset="1"
   style="stop-color:#EFBB0E"
   id="stop1434" />
		</linearGradient>
		<path
   class="st52"
   d="m 960.8,1205.1 -282.4,282.4 c -17,-9.4 -24.9,-12.8 -39.7,-27.6 -14.8,-14.8 -18.2,-22.7 -27.6,-39.7 l 282.4,-282.4 c 21.6,16 51.8,44.5 67.3,67.3 z"
   id="path1437"
   style="display:inline;fill:url(#SVGID_91_)" />
		
			<linearGradient
   id="SVGID_92_"
   gradientUnits="userSpaceOnUse"
   x1="-10648.037"
   y1="-4981.2383"
   x2="-10605.292"
   y2="-4981.2383"
   gradientTransform="matrix(-1.9685,-1.9685,1.7421,-1.7421,-11466.135,-28272.779)">
			<stop
   offset="0"
   style="stop-color:#2D3335"
   id="stop1439" />
			<stop
   offset="0.5"
   style="stop-color:#4C464A"
   id="stop1441" />
			<stop
   offset="1"
   style="stop-color:#384042"
   id="stop1443" />
		</linearGradient>
		<path
   class="st53"
   d="m 915.9,1183.3 c 14.8,14.8 31.8,28.5 36.4,47.1 l -274,273.9 c -27.9,-22.1 -62.2,-54.7 -84.1,-84.1 l 273.9,-273.9 c 14.9,1 32.7,22.1 47.5,36.8 z"
   id="path1446"
   style="display:inline;fill:url(#SVGID_92_)" />
		
			<linearGradient
   id="SVGID_93_"
   gradientUnits="userSpaceOnUse"
   x1="-10707.796"
   y1="-5038.4014"
   x2="-10600.952"
   y2="-4964.2524"
   gradientTransform="matrix(-1.9685,-1.9685,1.7421,-1.7421,-11466.135,-28272.779)">
			<stop
   offset="0"
   style="stop-color:#000000"
   id="stop1448" />
			<stop
   offset="1"
   style="stop-color:#000000;stop-opacity:0"
   id="stop1450" />
		</linearGradient>
		<path
   class="st54"
   d="m 914.9,1184.3 c 14.8,14.8 32.8,27.4 37.5,46.1 l -274,273.9 c -33.7,-29.5 -50.4,-45.4 -84.1,-84.1 l 273.9,-273.9 c 14.9,1 31.7,23.3 46.5,38.1 h 0.2 z"
   id="path1453"
   style="display:inline;fill:url(#SVGID_93_)" />
		
			<linearGradient
   id="SVGID_94_"
   gradientUnits="userSpaceOnUse"
   x1="1053.0858"
   y1="-12082.403"
   x2="1280.9609"
   y2="-12541.337"
   gradientTransform="matrix(1,0,0,-1,0,-11496.945)">
			<stop
   offset="0"
   style="stop-color:#FFFFFF"
   id="stop1455" />
			<stop
   offset="1"
   style="stop-color:#FFFFFF;stop-opacity:0"
   id="stop1457" />
		</linearGradient>
		<path
   class="st55"
   d="m 1024.4,683 c 173.8,-137.5 333.9,-54.4 332.4,22.7 -1.5,77.1 -241.8,300.7 -326.4,282.6 C 945.8,970.1 921.7,760 1024.4,683 Z"
   id="path1460"
   style="display:inline;fill:url(#SVGID_94_)" />
		
			<linearGradient
   id="SVGID_95_"
   gradientUnits="userSpaceOnUse"
   x1="-34631.352"
   y1="25990.77"
   x2="-34403.477"
   y2="25531.836"
   gradientTransform="matrix(-0.503,0.1984,-0.1972,0.4325,-10924.307,-3247.0076)">
			<stop
   offset="0"
   style="stop-color:#FFFFFF"
   id="stop1462" />
			<stop
   offset="1"
   style="stop-color:#FFFFFF;stop-opacity:0"
   id="stop1464" />
		</linearGradient>
		<path
   class="st56"
   d="m 1401.8,1076.3 c -38.2738,30.5857 -78.9152,60.7043 -126.4553,74.8834 -11.3525,3.0125 -25.3503,6.0739 -35.4386,-1.6649 -8.9281,-11.9533 4.196,-25.215 11.6719,-34.1912 36.251,-41.3525 78.3901,-77.0181 120.5863,-112.0901 25.5293,-20.3725 51.3645,-41.07068 80.7106,-55.70822 13.5658,-9.11453 28.3882,4.51613 23.2069,19.25519 -5.8274,28.72362 -22.2903,54.17003 -40.6302,76.54433 -10.1516,12.0128 -21.466,23.0325 -33.6516,32.9715 z"
   id="path1467"
   style="display:inline;fill:url(#SVGID_95_)" />
	</g>
</g>
</svg>
